<?xml version="1.0" encoding="UTF-8" standalone="no"?>
<!-- Created with Inkscape (http://www.inkscape.org/) -->

<svg
   width="42.42976mm"
   height="42.429771mm"
   viewBox="0 0 42.42976 42.429771"
   version="1.1"
   id="svg1"
   inkscape:version="1.3.2 (091e20e, 2023-11-25, custom)"
   sodipodi:docname="frame.svg"
   xmlns:inkscape="http://www.inkscape.org/namespaces/inkscape"
   xmlns:sodipodi="http://sodipodi.sourceforge.net/DTD/sodipodi-0.dtd"
   xmlns="http://www.w3.org/2000/svg"
   xmlns:svg="http://www.w3.org/2000/svg">
  <sodipodi:namedview
     id="namedview1"
     pagecolor="#ffffff"
     bordercolor="#666666"
     borderopacity="1.0"
     inkscape:showpageshadow="2"
     inkscape:pageopacity="0.0"
     inkscape:pagecheckerboard="0"
     inkscape:deskcolor="#d1d1d1"
     inkscape:document-units="mm"
     inkscape:zoom="4"
     inkscape:cx="139.125"
     inkscape:cy="131.625"
     inkscape:window-width="3840"
     inkscape:window-height="2066"
     inkscape:window-x="-11"
     inkscape:window-y="-11"
     inkscape:window-maximized="1"
     inkscape:current-layer="g138"
     showguides="false">
    <sodipodi:guide
       position="-2.6187642e-07,37.286257"
       orientation="1,0"
       id="guide94"
       inkscape:locked="false" />
    <sodipodi:guide
       position="7.4125649,42.429777"
       orientation="0,1"
       id="guide95"
       inkscape:locked="false" />
    <sodipodi:guide
       position="-2.2618765e-06,28.286506"
       orientation="0,-1"
       id="guide96"
       inkscape:locked="false" />
    <sodipodi:guide
       position="14.143245,42.429777"
       orientation="1,0"
       id="guide97"
       inkscape:locked="false" />
    <sodipodi:guide
       position="28.286506,39.920187"
       orientation="1,0"
       id="guide141"
       inkscape:locked="false" />
    <sodipodi:guide
       position="42.429766,21.072256"
       orientation="1,0"
       id="guide142"
       inkscape:locked="false" />
    <sodipodi:guide
       position="42.429776,14.143256"
       orientation="0,-1"
       id="guide143"
       inkscape:locked="false" />
    <sodipodi:guide
       position="35.358136,-4.238658e-06"
       orientation="0,-1"
       id="guide144"
       inkscape:locked="false" />
    <sodipodi:guide
       position="7.6606149,40.842277"
       orientation="0,1"
       id="guide145"
       inkscape:locked="false" />
    <sodipodi:guide
       position="1.5874977,26.699006"
       orientation="1,0"
       id="guide146"
       inkscape:locked="false" />
  </sodipodi:namedview>
  <defs
     id="defs1" />
  <g
     inkscape:groupmode="layer"
     id="layer2"
     inkscape:label="Archive"
     transform="translate(-95.262305,-190.02804)">
    <g
       id="g88"
       inkscape:label="Sketch 1"
       style="display:none"
       sodipodi:insensitive="true">
      <path
         style="fill:none;stroke:#000000;stroke-width:0.264583px;stroke-linecap:butt;stroke-linejoin:miter;stroke-opacity:1"
         d="m 33.26221,207.37267 c 1.835155,0 3.670313,0 5.505468,0 0.305861,0 0.614794,-0.0433 0.91758,0 0.239372,0.0342 0.44967,0.18965 0.688182,0.2294 0.226274,0.0377 0.463245,-0.045 0.688184,0 0.167661,0.0335 0.292915,0.18792 0.45879,0.22939 0.785056,0.19627 2.513084,-0.23281 3.211523,0 0.07254,0.0242 -0.07543,0.21683 0,0.2294 0.603395,0.10056 1.223438,0 1.835158,0 0.229393,0 0.458787,0 0.688184,0 0.07646,0 0.195196,0.0684 0.229393,0 0.06839,-0.13679 -0.04836,-0.31371 0,-0.45879 0.108138,-0.32441 0.413594,-0.57862 0.458788,-0.91758 0.299238,-2.24428 0.02625,-2.00865 -0.229394,-3.67031 -0.281919,-1.83248 -0.131942,-1.5773 -0.458787,-3.21153 -0.429086,-2.14542 -0.02151,0.14331 -0.458791,-1.60576 -0.03709,-0.14836 0.108138,-0.35065 0,-0.45879 -0.05407,-0.0541 -0.195199,0.0684 -0.229393,0 -0.128786,-0.25757 0,-1.848 0,-2.29394"
         id="path10" />
      <path
         style="fill:none;stroke:#000000;stroke-width:0.264583px;stroke-linecap:butt;stroke-linejoin:miter;stroke-opacity:1"
         d="m 102.08057,195.44416 c -0.79009,4.34552 -0.28032,0.68687 -0.45878,5.50547 -0.0397,1.0725 -0.13642,2.14232 -0.2294,3.21152 -0.06,0.68982 -0.16671,1.37498 -0.22939,2.06455 -0.0138,0.1523 0,0.30586 0,0.45879 0,0.0765 -0.0541,0.17533 0,0.22939 0.0541,0.0541 0.15293,0 0.22939,0 0.68818,0 1.37637,0 2.06455,0 1.56907,0 3.2819,0.18935 4.81729,-0.22939 0.32991,-0.09 0.59739,-0.33872 0.91758,-0.45879 1.37976,-0.51741 3.49263,-0.91758 4.81728,-0.91758"
         id="path11" />
      <path
         style="fill:none;stroke:#000000;stroke-width:0.264583px;stroke-linecap:butt;stroke-linejoin:miter;stroke-opacity:1"
         d="m 101.62179,261.051 c 0.22939,-0.61172 0.56005,-1.19453 0.68818,-1.83516 0.10497,-0.52486 0,-1.07051 0,-1.60576 0,-0.91758 0.0654,-1.83749 0,-2.75274 -0.0385,-0.53931 -0.18793,-1.06666 -0.2294,-1.60576 -0.0704,-0.91487 0,-1.83515 0,-2.75273 0,-0.76465 0,-1.5293 0,-2.29395 0,-0.15293 0,-0.30586 0,-0.45879 0,-0.0765 -0.0765,-0.22939 0,-0.22939 12.36142,0 2.30508,0.0867 8.25821,0.45879 0.53421,0.0334 1.07169,-0.0356 1.60576,0 1.34153,0.0894 3.13827,0.68818 4.3585,0.68818"
         id="path12" />
      <path
         style="fill:none;stroke:#000000;stroke-width:0.264583px;stroke-linecap:butt;stroke-linejoin:miter;stroke-opacity:1"
         d="m 36.473733,244.99338 c 4.211682,-0.0931 8.406267,0.2294 12.616701,0.2294 0.45879,0 1.171191,-0.41036 1.376368,0 0.410353,0.8207 0.0382,1.83595 0,2.75273 -0.03833,0.91996 -0.181002,1.83325 -0.229394,2.75273 -0.04823,0.91631 0,1.83516 0,2.75274 0,0.53525 -0.05911,1.07378 0,1.60576 0.484277,4.35851 -0.15462,0.37895 0.458787,1.60576 0.170982,0.34196 -0.05407,0.76849 0,1.14697 0.07299,0.5109 0.458791,0.87648 0.458791,1.37637"
         id="path13" />
      <path
         style="fill:none;stroke:#000000;stroke-width:0.264583px;stroke-linecap:butt;stroke-linejoin:miter;stroke-opacity:1"
         d="m 40.144046,255.77492 c 1.217366,0.12174 2.452947,-0.12173 3.670313,0 0.170133,0.017 0.289129,0.20819 0.45879,0.2294 0.69867,0.0873 1.564471,0 2.293946,0 0.305858,0 0.611716,0 0.917577,0 0.07646,0 0.229394,0.0765 0.229394,0 0,-1.88433 -0.333764,-2.12761 -0.688184,-3.89971 -0.02999,-0.14996 0.0568,-0.3168 0,-0.45879 -0.102391,-0.25598 -0.356396,-0.4322 -0.458787,-0.68818 -0.0568,-0.14199 0.04836,-0.31371 0,-0.45879 -0.0342,-0.10259 -0.181036,-0.13268 -0.229397,-0.2294 -0.122758,-0.24551 0.132983,-1.24338 0,-1.37636 -0.05407,-0.0541 -0.153519,0.009 -0.229393,0 -0.536512,-0.0671 -1.071362,-0.14718 -1.605762,-0.2294 -1.013592,-0.15594 -1.757116,-0.22939 -2.752736,-0.22939 -0.229393,0 -0.458787,0 -0.688183,0 -0.07646,0 -0.175324,-0.0541 -0.229394,0 -0.05407,0.0541 0,0.15293 0,0.22939 0,0.30586 -0.04325,0.6148 0,0.91758 0.0342,0.23937 0.152929,0.45879 0.229394,0.68818 0,0.38233 -0.04742,0.76761 0,1.14698 0.02999,0.23993 0.210849,0.44709 0.229396,0.68818 0.0975,1.26755 0,2.61492 0,3.89971"
         id="path14" />
      <path
         style="fill:none;stroke:#000000;stroke-width:0.264583px;stroke-linecap:butt;stroke-linejoin:miter;stroke-opacity:1"
         d="m 37.850101,203.70236 c 2.771229,0.39589 0.5266,-0.0539 2.752735,0.68819 0.974929,0.32497 1.971458,0.22939 2.982129,0.22939 0.15293,0 0.395505,0.13922 0.458788,0 0.970492,-2.13508 1.672918,-4.73883 1.376368,-7.11123 -0.05769,-0.46153 -0.171704,-0.91484 -0.229394,-1.37637 -0.03794,-0.3035 0.05998,-0.61766 0,-0.91758 -0.75026,-2.25078 -0.07233,0.0248 -0.229394,-0.91758 -0.0641,-0.38459 -0.165298,-0.76238 -0.229396,-1.14697 -0.01257,-0.0754 0.06839,-0.1952 0,-0.22939 -0.136784,-0.0684 -0.316796,-0.0568 -0.458788,0 -1.016505,0.4066 -1.968833,0.96183 -2.982129,1.37636 -0.816054,0.33384 -3.111796,1.17291 -4.129103,1.37637 -0.354243,0.0709 -1.337305,-0.0781 -1.376368,0 -0.06839,0.13679 0.06839,0.32201 0,0.45879 -0.0342,0.0684 -0.195196,-0.0684 -0.229394,0 -0.325795,0.65159 0.799156,3.1726 1.146974,4.1291 0.398886,0.23313 0.578356,2.42326 0.688184,2.75274 0.08718,0.26155 0.305858,0.45879 0.458788,0.68818 z"
         id="path15" />
      <path
         style="fill:none;stroke:#000000;stroke-width:0.264583px;stroke-linecap:butt;stroke-linejoin:miter;stroke-opacity:1"
         d="m 106.66847,202.0966 c 0.30586,0 0.61297,0.0277 0.91757,0 0.90183,0.18241 1.67367,-0.36438 2.52334,-0.45879 0.8543,-0.0949 2.91579,0.27362 3.67032,-0.22939 0.24595,-0.16398 -0.15726,-3.4308 -0.2294,-3.89971 -0.10508,-0.68306 -0.23298,-1.61652 -0.45879,-2.29395 -0.0541,-0.1622 -0.18792,-0.29291 -0.22939,-0.45879 -0.0371,-0.14836 0.12724,-0.37396 0,-0.45879 -0.15269,-0.10179 -4.37627,0 -4.81729,0 -0.0873,0 -2.98203,-7.9e-4 -2.98213,0 -0.0757,0.52988 0.0664,1.07465 0,1.60577 -0.0874,0.69952 -0.34289,1.36917 -0.45878,2.06455 -0.0635,0.38095 -0.10502,2.33268 0,2.75273 0.25357,1.0143 0.22939,0.3662 0.22939,0.91758"
         id="path16" />
      <path
         style="fill:none;stroke:#000000;stroke-width:0.264583px;stroke-linecap:butt;stroke-linejoin:miter;stroke-opacity:1"
         d="m 106.89786,252.33401 c 0.8316,2.71401 0.78884,3.9114 0.45879,6.88183 -0.0348,0.31335 -0.22939,0.60231 -0.22939,0.91758 0,0.0765 0.15369,0.0108 0.22939,0 0.46044,-0.0658 0.91243,-0.19626 1.37637,-0.22939 4.90404,0 -0.74801,0.10056 3.21152,-0.2294 0.45721,-0.0381 0.91758,0 1.37637,0 0.45879,-0.0765 0.91409,-0.17803 1.37637,-0.22939 0.22799,-0.0253 0.46324,0.045 0.68818,0 0.16766,-0.0335 0.29658,-0.17533 0.45879,-0.2294 0.11774,-0.0393 1.83956,0.0485 1.83516,0 -0.1127,-1.23964 -0.34623,-2.47344 -0.68819,-3.67031 -0.047,-0.1644 -0.17533,-0.29658 -0.22939,-0.45879 -0.0725,-0.21762 0.0324,-0.46109 0,-0.68818 -0.0551,-0.38598 -0.17426,-0.761 -0.2294,-1.14698 -0.0216,-0.15139 0.0371,-0.31042 0,-0.45878 -0.0415,-0.16588 -0.17533,-0.29659 -0.22939,-0.45879 -0.0242,-0.0726 0.0754,-0.21683 0,-0.2294 -0.45255,-0.0754 -0.91758,0 -1.37637,0 -1.45283,0 -2.90567,0 -4.3585,0 -1.7436,0 -0.27783,0.13679 -1.37636,-0.22939 -0.21356,-0.0712 -1.12727,-0.0996 -1.37637,0 -0.3175,0.127 -0.61172,0.30586 -0.91758,0.45879 z"
         id="path17" />
      <path
         style="fill:none;stroke:#000000;stroke-width:0.264583px;stroke-linecap:butt;stroke-linejoin:miter;stroke-opacity:1"
         d="m 106.66847,253.93977 c 0,-1.45284 0,-2.90567 0,-4.3585 0,-0.44024 0.0857,-0.94812 0,-1.37637 -0.0618,-0.30915 -0.17757,-0.60659 -0.2294,-0.91758 -0.0503,-0.30169 0.0742,-0.62085 0,-0.91757 -0.0415,-0.16588 -0.18792,-0.29292 -0.22939,-0.45879 -0.0371,-0.14837 0.0251,-0.30794 0,-0.45879 -0.0518,-0.31098 -0.17757,-0.6066 -0.2294,-0.91758 -0.0377,-0.22627 0.045,-0.46324 0,-0.68818 -0.0618,-0.30915 -0.19029,-0.60474 -0.22939,-0.91758 -0.12965,-1.03714 0.20502,-2.18644 0,-3.21153 -0.0335,-0.16765 -0.20129,-0.29013 -0.2294,-0.45878 -0.10056,-0.6034 0.0469,-1.22524 0,-1.83516 -0.0531,-0.69038 -0.17629,-1.37417 -0.22939,-2.06455 -0.1111,-1.44429 0.1111,-2.91421 0,-4.3585 -0.26711,-3.47239 -0.2294,0.0109 -0.2294,-2.06455 0,-0.99404 0,-1.98808 0,-2.98213 0,-0.53525 0.088,-1.07779 0,-1.60576 -0.0677,-0.40617 -0.36946,-0.745 -0.45878,-1.14697 -0.18572,-0.83571 0.0727,-2.11005 0,-2.98213 -0.0449,-0.53882 -0.18793,-1.06667 -0.2294,-1.60576 -0.086,-1.11762 0.15868,-2.3302 0,-3.44092 -0.0242,-0.16926 -0.20128,-0.29014 -0.22939,-0.45879 -0.11314,-0.67882 0,-1.37637 0,-2.06455 0,-1.37637 0,-2.75274 0,-4.1291 0,-1.45284 0,-2.90567 0,-4.3585 0,-0.5501 -0.13283,-1.30386 0,-1.83516 0.0415,-0.16587 0.18792,-0.29291 0.22939,-0.45879 0.0371,-0.14836 -0.0484,-0.3137 0,-0.45878 0.0342,-0.10259 0.18103,-0.13268 0.2294,-0.2294 0.10258,-0.20518 -0.0726,-0.47056 0,-0.68818 0.0342,-0.10259 0.18103,-0.13268 0.22939,-0.2294 0.10259,-0.20517 -0.0725,-0.47056 0,-0.68818 0.0342,-0.10259 0.20317,-0.12449 0.22939,-0.2294 0.0742,-0.29672 -0.13678,-0.644 0,-0.91757 0.0484,-0.0967 0.1952,-0.12681 0.2294,-0.2294 0.0918,-0.27527 -0.0918,-0.6423 0,-0.91758 0.0541,-0.1622 0.17532,-0.29658 0.22939,-0.45878 0.0484,-0.14509 -0.0371,-0.31043 0,-0.45879 0.18551,-0.74202 0.17012,-0.85831 0.68819,-1.37637"
         id="path18" />
      <path
         style="fill:none;stroke:#000000;stroke-width:0.264583px;stroke-linecap:butt;stroke-linejoin:miter;stroke-opacity:1"
         d="m 38.079494,204.16115 c 0.305861,0 0.61172,0 0.917581,0 0.660143,0 4.209467,0.15195 4.817284,0 0.165875,-0.0415 0.296582,-0.17532 0.45879,-0.22939 0.292333,-0.0975 3.379314,-0.0582 3.670311,0 0.167661,0.0335 0.291129,0.19586 0.45879,0.22939 0.76939,0.15388 2.172248,0 2.982129,0 0.229394,0 0.470562,-0.0725 0.688184,0 0.162206,0.0541 0.292912,0.18792 0.45879,0.2294 0.4318,0.10795 0.944565,-0.10795 1.376365,0 0.165878,0.0415 0.290137,0.20128 0.458791,0.22939 0.892778,0.1488 1.859954,-0.1488 2.752735,0 0.238511,0.0397 0.44881,0.1952 0.688184,0.22939 1.009126,0.14416 2.191845,0 3.211523,0 0.229394,0 0.525976,-0.1622 0.688184,0 0.108138,0.10814 -0.108138,0.35066 0,0.45879 0.108138,0.10814 0.305858,0 0.458787,0 1.035632,0 2.184236,0.12841 3.211526,0 0.461526,-0.0577 0.913556,-0.18311 1.376365,-0.22939 0.532599,-0.0533 1.074642,0.0664 1.605764,0 0.386885,-0.0484 0.75946,-0.18634 1.146972,-0.2294 0.676709,-0.0752 1.388949,0.0845 2.064551,0 0.312838,-0.0391 0.605473,-0.18481 0.917578,-0.22939 0.971838,-0.13884 2.014265,0.16131 2.982129,0 0.238514,-0.0398 0.44967,-0.18964 0.688184,-0.22939 0.377121,-0.0629 0.772073,0.075 1.146972,0 0.474215,-0.0948 0.902152,-0.36395 1.376367,-0.45879 0.643142,-0.12863 1.446753,0.20593 2.064552,0 0.324414,-0.10814 0.593164,-0.35066 0.917578,-0.45879 0.145081,-0.0484 0.313708,0.0484 0.45879,0 0.102587,-0.0342 0.123357,-0.20819 0.229394,-0.2294 0.760002,-0.152 2.322893,0.21975 2.982129,0 0.102589,-0.0342 0.152929,-0.15293 0.229394,-0.22939 0.229396,0 0.470561,0.0725 0.688184,0 0.07254,-0.0242 -0.06839,-0.1952 0,-0.2294 0.34196,-0.17098 0.772072,0.075 1.146974,0 0.167658,-0.0335 0.292912,-0.18792 0.458787,-0.22939 0.370909,-0.0927 0.76985,0.0628 1.146974,0 0.238514,-0.0397 0.44967,-0.18964 0.688184,-0.2294 0.377121,-0.0628 0.772073,0.075 1.146971,0 0.237109,-0.0474 0.453602,-0.17074 0.688184,-0.22939 0.28692,-0.0717 0.636731,0.0936 0.917578,0 0.324413,-0.10814 0.593167,-0.35065 0.91758,-0.45879 0.290163,-0.0967 0.62085,0.0742 0.917578,0 0.165875,-0.0415 0.292912,-0.18793 0.458787,-0.22939 0.148365,-0.0371 0.306795,0.0169 0.45879,0 0.537382,-0.0597 1.067758,-0.1756 1.605762,-0.2294 0.380428,-0.038 0.772073,0.075 1.146974,0 0.237106,-0.0474 0.447373,-0.2075 0.688184,-0.22939 0.609206,-0.0554 1.223436,0 1.835152,0 0.15293,0 0.31043,-0.0371 0.45879,0 0.52715,0.13178 1.67123,0.77014 2.29395,0.45879 0.0967,-0.0484 0.1268,-0.1952 0.22939,-0.2294 0.64695,-0.21565 2.23232,0.12497 2.98213,0 0.23852,-0.0397 0.4536,-0.17075 0.68819,-0.22939 0.53575,-0.13394 1.90821,0.19286 2.29394,0 0.0684,-0.0342 -0.0725,-0.20522 0,-0.2294 0.70694,-0.23565 2.27443,0.2359 2.98213,0 0.10259,-0.0342 0.12681,-0.1952 0.22939,-0.22939 0.33524,-0.11175 1.29333,0 1.60577,0"
         id="path19" />
      <path
         style="fill:none;stroke:#000000;stroke-width:0.264583px;stroke-linecap:butt;stroke-linejoin:miter;stroke-opacity:1"
         d="m 47.714066,255.31613 c -0.07646,-0.30585 -0.181454,-0.60597 -0.229394,-0.91757 -0.105288,-0.68437 -0.166706,-1.37498 -0.229393,-2.06455 -0.06585,-0.72426 0.1749,-1.59434 0,-2.29395 -0.276934,-1.10773 -0.109014,0.0114 -0.458791,-0.68818 -0.14619,-0.29238 0.07961,-0.82853 0,-1.14698 -0.04147,-0.16587 -0.195863,-0.29112 -0.229393,-0.45879 -0.104974,-0.52485 0,-1.0705 0,-1.60576 0,-0.99404 0,-1.98808 0,-2.98213 0,-1.45283 0,-2.90566 0,-4.35849 0,-0.60038 -0.08469,-1.24234 0,-1.83516 0.05514,-0.38598 0.181033,-0.76009 0.229393,-1.14697 0.02845,-0.22763 -0.03771,-0.46191 0,-0.68819 0.462442,-2.77464 0.02429,2.71497 0.458791,-2.06455 0.0623,-0.68535 0,-1.37636 0,-2.06455 0,-1.45283 0,-2.90566 0,-4.35849 0,-1.18712 0.166899,-2.50202 0,-3.67032 -0.0342,-0.23937 -0.181976,-0.45107 -0.229397,-0.68818 -0.07352,-0.36762 0.07352,-0.77935 0,-1.14697 -0.03353,-0.16766 -0.19586,-0.29113 -0.229394,-0.45879 -0.147047,-0.73524 0.147048,-1.55871 0,-2.29395 -0.06183,-0.30915 -0.184808,-0.60547 -0.229393,-0.91758 -0.06574,-0.46014 0,-1.40844 0,-1.83515 0,-0.91758 0,-1.83516 0,-2.75274 0,-0.38232 0.07498,-0.77207 0,-1.14697 -0.03353,-0.16766 -0.134552,-0.31652 -0.229397,-0.45879 -0.05998,-0.09 -0.211616,-0.12273 -0.229393,-0.22939 -0.172115,-1.03269 0.205393,-2.18456 0,-3.21153 -0.03353,-0.16766 -0.187926,-0.29291 -0.229394,-0.45879 -0.03709,-0.14836 0.03709,-0.31042 0,-0.45879 -0.04147,-0.16587 -0.187926,-0.29291 -0.229397,-0.45879 -0.03709,-0.14836 0.03709,-0.31042 0,-0.45878 -0.124404,-0.49763 -0.547266,-0.88317 -0.688181,-1.37637 -0.06302,-0.22057 0.04499,-0.46324 0,-0.68818 -0.03353,-0.16767 -0.175326,-0.29659 -0.229396,-0.45879 -0.123296,-0.36989 -0.165296,-0.76239 -0.229394,-1.14698 -0.08846,-0.53073 0.183907,-1.92613 0,-2.29394 -0.04836,-0.0967 -0.208187,-0.12336 -0.229394,-0.2294 -0.142176,-0.71087 0,-2.39468 0,-3.21152 0,-0.70764 -0.155315,-2.13148 0,-2.75273 0.14696,-0.58785 0.229394,-0.8144 0.229394,-1.37637"
         id="path20" />
      <path
         style="fill:none;stroke:#000000;stroke-width:0.264583px;stroke-linecap:butt;stroke-linejoin:miter;stroke-opacity:1"
         d="m 41.749807,248.89309 c 2.519244,-0.62981 -0.40115,0.0215 1.605762,-0.2294 0.386887,-0.0484 0.76009,-0.18103 1.146974,-0.22939 0.889209,-0.11115 1.875174,0.17551 2.752736,0 0.167658,-0.0335 0.289525,-0.20521 0.458787,-0.2294 1.19725,-0.17103 2.468145,0.13358 3.670313,0 3.404084,-0.37823 -0.867148,0.0597 1.376368,-0.68818 0.436666,-0.14555 1.832052,0 2.293945,0 1.758691,0 3.517384,0 5.276075,0 1.146972,0 2.293946,0 3.440917,0 0.465349,0 1.143328,0.0514 1.605764,0 0.462272,-0.0514 0.914839,-0.1717 1.376365,-0.2294 1.502519,-0.18781 3.107698,0.0814 4.587891,0.2294 0.742995,0.0743 1.558623,-0.12255 2.293948,0 0.168653,0.0281 0.292912,0.18793 0.458788,0.22939 0.296727,0.0742 0.62085,-0.0742 0.917577,0 0.165875,0.0415 0.292915,0.18793 0.45879,0.2294 0.148363,0.0371 0.310425,-0.0371 0.458791,0 0.165875,0.0415 0.289525,0.20521 0.458787,0.22939 0.894823,0.12784 2.644606,0 3.440919,0 0.305859,0 0.633596,-0.11359 0.917578,0 1.308759,0.52351 0.144955,0.35418 1.146971,0.68819 0.549098,0.18303 1.272117,-0.14076 1.835158,0 0.399482,0.0999 0.778669,0.27464 1.146972,0.45879 0.09672,0.0484 0.123356,0.20818 0.229396,0.22939 0.374899,0.075 0.776063,-0.0927 1.146972,0 1.940999,0.647 -0.254212,-0.004 1.146974,0.2294 0.621966,0.10366 1.27118,0.1768 1.835155,0.45878 0.193442,0.0967 0.265348,0.36207 0.45879,0.45879 0.281988,0.141 0.624853,0.11231 0.917578,0.2294 0.100404,0.0402 0.126806,0.1952 0.229393,0.22939 0.667332,0.22245 2.030699,-0.18051 2.752736,0 0.10491,0.0262 0.122727,0.21162 0.229394,0.2294 0.377124,0.0628 0.776065,-0.0927 1.146974,0 0.267464,0.0669 0.432204,0.35639 0.688184,0.45879 0.141991,0.0568 0.305858,0 0.458787,0 0.592156,0 2.606461,-0.15127 3.211526,0 0.165875,0.0415 0.290134,0.20128 0.458787,0.22939 0.301701,0.0503 0.633591,-0.11359 0.917581,0 0.15875,0.0635 0.0765,0.38232 0.22939,0.45879 0.3646,0.1823 1.78042,-0.0734 2.29395,0 0.3121,0.0446 0.60659,0.17756 0.91758,0.2294 0.15085,0.0251 0.31042,-0.0371 0.45879,0 0.16587,0.0415 0.28952,0.20521 0.45878,0.22939 0.60557,0.0865 1.22344,0 1.83516,0 1.2999,0 2.59981,0 3.89971,0 0.55481,0 3.456,0.1479 3.89971,0 0.10258,-0.0342 0.1268,-0.1952 0.22939,-0.22939 0.43554,-0.14519 1.58186,0 2.06455,0 0.0945,0 0.62746,0.0607 0.68819,0 0.30585,-0.30587 -0.38233,-0.2294 0.22939,-0.2294"
         id="path21" />
    </g>
    <g
       id="g90"
       inkscape:label="Sketch 2"
       style="display:none"
       sodipodi:insensitive="true">
      <path
         style="fill:none;stroke:#000000;stroke-width:0.264583px;stroke-linecap:butt;stroke-linejoin:miter;stroke-opacity:1"
         d="m 32.574026,112.17394 c 0.305861,-0.15294 0.593167,-0.35066 0.917577,-0.45879 0.390208,-0.13007 1.582465,0 2.064552,0 1.529297,0 3.058594,0 4.587891,0 0.331129,0 1.301898,0.15193 1.605761,0 0.61172,-0.38233 1.223439,-0.76465 1.835158,-1.14698 0.07647,-0.0765 0.139417,-0.16941 0.229394,-0.22939 0.142264,-0.0948 0.337889,-0.10849 0.45879,-0.2294 0.05407,-0.0541 -0.05407,-0.17532 0,-0.22939 0.279398,-0.2794 0.512514,-0.10745 0.688184,-0.45879 0.03419,-0.0684 -0.06362,-0.18698 0,-0.22939 0.201192,-0.13413 0.563777,-0.022 0.688181,-0.2294 0.157364,-0.26227 -0.05998,-0.61766 0,-0.91758 0.0024,-0.0122 0.453925,-0.66386 0.458791,-0.68818 0.07498,-0.3749 -0.120902,-0.78427 0,-1.14697 0.0342,-0.10259 0.195199,-0.12681 0.229393,-0.2294 0.229397,-0.68818 -0.114697,-0.22939 0,-0.68818 0.05865,-0.23458 0.170749,-0.4536 0.229397,-0.68818 0.114861,-0.45945 0,-1.15196 0,-1.60577 0,-0.99404 0,-1.98808 0,-2.98213"
         id="path1" />
      <path
         style="fill:none;stroke:#000000;stroke-width:0.264583px;stroke-linecap:butt;stroke-linejoin:miter;stroke-opacity:1"
         d="m 98.180868,99.786629 c -0.08464,0.142981 0.09126,3.579051 0,3.670311 -0.05407,0.0541 -0.229394,-0.0765 -0.229394,0 0,0.10814 0.195196,0.12681 0.229394,0.2294 0.127071,0.38121 0,1.22591 0,1.60576 0,0.59791 -0.163463,1.80356 0,2.29394 0.0342,0.10259 0.181033,0.13268 0.229393,0.2294 0.08022,0.16043 0.167818,1.08539 0.229397,1.14697 0.17349,0.17349 0.926624,0.54129 1.146971,0.68818 0.407381,0.27159 0.535251,0.84112 0.917581,1.14698 0.11942,0.0955 0.31042,-0.0371 0.45879,0 0.33175,0.0829 0.58225,0.39172 0.91757,0.45879 0.37491,0.075 0.77208,-0.075 1.14698,0 0.54223,0.10844 1.06054,0.36792 1.60576,0.45879 0.46734,0.0779 2.10696,0.10409 2.52334,0 0.39948,-0.0999 0.75104,-0.34567 1.14697,-0.45879 0.77958,-0.22274 1.72511,0.15964 2.52334,0 0.64117,-0.12824 0.74624,-0.2294 1.37637,-0.2294"
         id="path2" />
      <path
         style="fill:none;stroke:#000000;stroke-width:0.264583px;stroke-linecap:butt;stroke-linejoin:miter;stroke-opacity:1"
         d="m 99.786629,165.62286 c 0,-0.61171 0,-1.22343 0,-1.83515 0,-1.5293 0,-3.05859 0,-4.58789 0,-0.23581 -0.101102,-1.63295 0,-1.83516 0.158184,-0.31637 0.489071,-0.6189 0.688181,-0.91758 0.3441,-0.51614 0.2294,-0.80288 0.68819,-1.37636 0.13362,-0.16704 1.06229,-0.41645 1.14697,-0.45879 0.19344,-0.0967 0.25798,-0.37847 0.45879,-0.45879 0.29272,-0.11709 0.60843,-0.16757 0.91758,-0.2294 0.075,-0.015 0.20521,0.0725 0.22939,0 0.0725,-0.21762 -0.16221,-0.52597 0,-0.68818 0.16221,-0.16221 0.4611,0.0324 0.68819,0 0.6242,-0.0892 1.21685,-0.33513 1.83515,-0.45879 0.42842,-0.0857 0.93763,0 1.37637,0 1.14697,0 2.29394,0 3.44092,0"
         id="path3" />
      <path
         style="fill:none;stroke:#000000;stroke-width:0.264583px;stroke-linecap:butt;stroke-linejoin:miter;stroke-opacity:1"
         d="m 33.721,155.07072 c 0.305858,-0.15293 0.600075,-0.33179 0.917578,-0.45879 0.212986,-0.0852 0.463243,0.045 0.688183,0 0.593818,-0.11877 1.427877,-0.44162 2.064552,-0.2294 0.102587,0.0342 0.132673,0.18104 0.229394,0.2294 0.06839,0.0342 0.175326,-0.0541 0.229394,0 0.194947,0.19495 0.212198,0.56489 0.45879,0.68818 1.246298,0.62315 1.271489,-0.0262 2.293945,0.2294 0.104907,0.0262 0.139417,0.16941 0.229394,0.22939 0.28453,0.18969 0.63305,0.2691 0.917577,0.45879 0.08998,0.06 0.132676,0.18103 0.229397,0.22939 0.06839,0.0342 0.161001,-0.0342 0.229394,0 0.954685,0.47735 -0.245232,-0.0158 0.229393,0.45879 0.241803,0.24181 0.675775,0.21699 0.917578,0.45879 0.120901,0.1209 0.134554,0.31653 0.229396,0.45879 0.05998,0.09 0.181034,0.13267 0.229394,0.22939 0.0342,0.0684 -0.05407,0.17533 0,0.2294 0.05407,0.0541 0.195199,-0.0684 0.229394,0 0.06839,0.13679 -0.03709,0.31043 0,0.45879 0.208534,0.83413 1.005417,1.21521 1.146974,2.06455 0.158639,0.95184 0,2.62363 0,3.67031 0,0.55534 0.133017,1.30309 0,1.83516 -0.02622,0.10491 -0.181033,0.13267 -0.229394,0.2294 -0.150191,0.30037 0.124106,0.8367 0,1.14697 -0.102394,0.25598 -0.305861,0.45879 -0.45879,0.68818"
         id="path4" />
      <path
         style="fill:none;stroke:#000000;stroke-width:0.264583px;stroke-linecap:butt;stroke-linejoin:miter;stroke-opacity:1"
         d="m 38.997075,162.18195 c 0.08444,-0.75998 -0.08444,-1.53398 0,-2.29395 0.03481,-0.31334 0.190288,-0.60474 0.229393,-0.91757 0.08536,-0.68288 0,-1.37637 0,-2.06456 0,-1.2999 0,-2.5998 0,-3.8997 0,-3.89971 0,-7.79942 0,-11.69913 0,-4.51142 0,-9.02285 0,-13.53428 0,-1.45283 0,-2.90566 0,-4.35849 0,-0.53525 -0.05911,-1.07378 0,-1.60576 0.05136,-0.46228 0.171704,-0.91485 0.229394,-1.37637 0.09399,-0.75191 -0.107106,-1.54419 0,-2.29395 0.430239,-3.01167 0.04769,1.8171 0.45879,-2.29394 0.03044,-0.30434 -0.04326,-0.61479 0,-0.91758 0.326115,-2.28281 0.229394,1.20365 0.229394,-1.60576 0,-0.64875 -0.106482,-1.42567 0,-2.06455 0.03975,-0.23852 0.121259,-0.47191 0.229394,-0.68819 0.04836,-0.0967 0.214103,-0.12234 0.229396,-0.22939 0.07541,-0.52787 0,-1.65838 0,-2.29395 0,-0.76465 0,-1.52929 0,-2.29394 0,-0.15293 0,-0.30586 0,-0.45879 0,-0.0765 -0.07646,-0.2294 0,-0.2294 2.501045,0 1.737418,0.16103 3.670313,0.68819 1.215208,0.33142 2.470494,0.51764 3.670311,0.91758 0.619792,0.20659 1.206979,0.5087 1.835158,0.68818 8.481748,2.42336 0.402457,0.18858 3.899707,0.68818 0.239374,0.0342 0.45879,0.15293 0.688184,0.2294 0.45879,0.0765 0.914841,0.1717 1.376367,0.22939 1.20024,0.15003 3.561832,0 4.587891,0 0.08533,0 1.917478,0.15059 2.293946,0 0.255979,-0.10239 0.423092,-0.38305 0.688183,-0.45879 0.705308,-0.20151 1.572414,0.14431 2.293946,0 0.167661,-0.0335 0.292912,-0.18792 0.458787,-0.22939 0.148365,-0.0371 0.307941,0.0251 0.45879,0 0.310984,-0.0518 0.605476,-0.18481 0.917578,-0.2294 0.227089,-0.0324 0.461912,0.0377 0.688184,0 0.238514,-0.0397 0.44967,-0.18964 0.688184,-0.22939 0.966435,-0.16107 2.009439,0.12159 2.982129,0 0.239938,-0.03 0.453602,-0.17075 0.688184,-0.22939 0.525378,-0.13135 1.144349,-0.11274 1.605762,-0.45879 0.173021,-0.12977 0.253613,-0.3904 0.45879,-0.45879 0.598445,-0.84477 1.392806,-0.0615 2.064549,-0.2294 0.165878,-0.0415 0.291129,-0.19586 0.45879,-0.22939 0.95581,-0.19116 0.382325,0.12744 1.146974,0 0.310981,-0.0518 0.605472,-0.18481 0.917578,-0.2294 0.454178,-0.0649 0.923819,0.0754 1.376367,0 0.238512,-0.0397 0.44881,-0.19519 0.688184,-0.22939 0.454176,-0.0649 0.917578,0 1.376365,0 1.452833,0 2.905665,0 4.358497,0 1.443832,0 3.462547,-0.16934 4.817288,0 2.554962,0.31937 -0.370332,0.22939 2.523339,0.22939 0.895162,0 2.106882,0.0973 2.982129,0 0.553268,-0.0615 1.056664,-0.36727 1.605762,-0.45879 0.150849,-0.0251 0.308829,0.03 0.45879,0 0.237106,-0.0474 0.447857,-0.20269 0.688178,-0.22939 0.0141,-0.002 2.52868,-0.0747 2.75274,0 0.10259,0.0342 0.12681,0.1952 0.22939,0.22939 0.80239,0.26747 1.48297,0.2294 2.29395,0.2294 0.25679,0 1.99218,-0.14475 2.06455,0 0.13997,0.27993 -0.33904,2.01454 -0.45879,2.29394 -0.1086,0.25341 -0.40472,0.41784 -0.45879,0.68819 -0.17339,0.86697 0,2.27418 0,3.21152 0,1.42089 -0.12913,2.93802 0,4.3585 -0.0382,0.94805 0.35606,1.82819 0.45879,2.75273 0.10898,0.98086 -0.082,1.99861 0,2.98213 0.27774,3.33285 0.12826,0.10849 0.45879,2.75274 0.0284,0.22762 -0.0377,0.46191 0,0.68818 0.0397,0.23851 0.1994,0.44825 0.22939,0.68818 0.0759,0.607 0,1.22344 0,1.83516 0,1.07051 0,2.14102 0,3.21152 0,1.07051 0,2.14102 0,3.21153 0,0.53525 0.0757,1.07589 0,1.60576 -0.0446,0.3121 -0.19802,0.60387 -0.22939,0.91758 -0.0456,0.45651 0.0352,0.91893 0,1.37637 -0.0415,0.53909 -0.18044,1.06729 -0.22939,1.60576 -0.0277,0.3046 0.0663,0.619 0,0.91758 -0.2934,1.32026 -0.47844,0.7864 -0.68819,1.83515 -0.29787,1.48939 -0.0657,2.88497 -0.22939,4.3585 -0.30438,2.73937 -0.2294,-0.43678 -0.2294,2.29394 0,1.01398 -0.033,0.62373 -0.22939,1.60576 -0.06,0.29993 0.0433,0.6148 0,0.91758 -0.0551,0.38598 -0.18104,0.76009 -0.2294,1.14698 -0.10202,0.81616 0,1.69709 0,2.52334 0,0.47968 -0.15258,1.14801 0,1.60576 0.0342,0.10259 0.20819,0.12336 0.2294,0.22939 0.11764,0.58819 -0.11764,1.24697 0,1.83516 0.25357,1.26787 0.22939,0.28601 0.22939,0.91758 0,0.15293 0,0.30586 0,0.45879 0,0.0765 0.0742,0.21085 0,0.22939 -1.8713,0.46783 -1.64843,0.08 -3.44092,0.2294 -0.38854,0.0324 -0.75946,0.18633 -1.14697,0.22939 -0.30399,0.0338 -0.61408,-0.0379 -0.91758,0 -0.31283,0.0391 -0.611716,0.15293 -0.917575,0.22939 -0.841113,0.0765 -1.680215,0.1798 -2.523341,0.2294 -0.915993,0.0539 -1.838325,-0.0762 -2.752733,0 -0.463511,0.0386 -0.913159,0.18728 -1.376368,0.22939 -0.380754,0.0346 -0.766987,-0.0422 -1.146971,0 -0.313346,0.0348 -0.61172,0.15293 -0.917581,0.2294 -0.382323,0.0765 -0.75901,0.1906 -1.146971,0.22939 -0.976402,0.0976 -2.01073,-0.13877 -2.982129,0 -0.239374,0.0342 -0.450281,0.18614 -0.688184,0.2294 -0.808821,0.53937 -1.68528,0.12464 -2.523339,0.22939 -0.386887,0.0484 -0.759013,0.1906 -1.146974,0.2294 -0.760855,0.0761 -1.541632,-0.13679 -2.293946,0 -0.475805,0.0865 -0.917577,0.30586 -1.376368,0.45879 -0.994042,0.15292 -1.981917,0.3535 -2.982129,0.45879 -0.456269,0.048 -0.919162,-0.0381 -1.376368,0 -0.46351,0.0386 -0.917577,0.15292 -1.376365,0.22939 -0.764648,0.0765 -1.52681,0.18427 -2.293945,0.22939 -5.117701,0.30105 0.37932,-0.30525 -2.293946,0.2294 -1.030232,0.20604 -2.778577,-0.11211 -3.899709,0 -0.387959,0.0388 -0.75946,0.18634 -1.146972,0.22939 -0.30399,0.0338 -0.619003,-0.0663 -0.917577,0 -0.401971,0.0893 -0.745003,0.36946 -1.146974,0.45879 -0.298577,0.0663 -0.61172,0 -0.917578,0 -1.146974,0 -2.293945,0 -3.440919,0 -0.611717,0 -1.246974,0.16805 -1.835156,0 -0.265091,-0.0757 -0.419052,-0.39898 -0.688183,-0.45879 -0.447863,-0.0995 -0.920385,0.0507 -1.376368,0 -0.240324,-0.0267 -0.455684,-0.16296 -0.688184,-0.22939 -0.303141,-0.0866 -0.618485,-0.1297 -0.917578,-0.2294 -0.162205,-0.0541 -0.292912,-0.18792 -0.45879,-0.22939 -0.148362,-0.0371 -0.310425,0.0371 -0.458787,0 -0.165876,-0.0415 -0.292915,-0.18793 -0.458791,-0.22939 -0.148362,-0.0371 -0.313705,0.0484 -0.458787,0 -0.324414,-0.10814 -0.600075,-0.33179 -0.91758,-0.45879 -0.575633,-0.23026 -1.445049,0.1239 -2.064549,0 -0.167661,-0.0335 -0.291129,-0.19587 -0.45879,-0.2294 -0.449879,-0.09 -0.917578,0 -1.376368,0 -1.146972,0 -2.293946,0 -3.440917,0 -0.716299,0 -1.118859,0.2294 -1.835158,0.2294 -0.305858,0 -0.611719,0 -0.917578,0 -0.07646,0 -0.229393,-0.0765 -0.229393,0 0,0.38232 0.517202,-0.57562 0.688184,-0.91758 z"
         id="path5" />
      <path
         style="fill:none;stroke:#000000;stroke-width:0.264583px;stroke-linecap:butt;stroke-linejoin:miter;stroke-opacity:1"
         d="m 42.437991,155.52951 c 0.229397,-0.61172 0.599914,-1.18784 0.688184,-1.83516 0.14464,-1.06069 0,-2.14102 0,-3.21153 0,-0.99404 0,-1.98808 0,-2.98212 0,-2.06455 0,-4.12911 0,-6.19366 0,-0.99404 0.09,-1.99216 0,-2.98213 -0.0353,-0.38829 -0.194095,-0.75867 -0.229393,-1.14697 -0.155758,-1.71333 0,-3.55087 0,-5.27607 0,-1.11532 -0.111131,-2.32961 0,-3.44092 0.04628,-0.46281 0.171704,-0.91484 0.229393,-1.37637 0.169043,-1.35235 -0.12337,-2.77204 0,-4.1291 0.09015,-0.9916 0.546328,-1.98913 0.688184,-2.98213 0.06357,-0.44498 -0.08806,-0.93606 0,-1.37637 0.04742,-0.2371 0.181973,-0.45107 0.229394,-0.68818 0.08823,-0.44114 -0.08823,-0.93522 0,-1.37637 0.04742,-0.23711 0.189643,-0.44967 0.229396,-0.68818 0.139655,-0.83794 -0.124481,-1.10076 -0.229396,-1.83516 -0.155602,-1.08921 0,-2.33306 0,-3.44092"
         id="path6" />
      <path
         style="fill:none;stroke:#000000;stroke-width:0.264583px;stroke-linecap:butt;stroke-linejoin:miter;stroke-opacity:1"
         d="m 46.567095,108.27423 c -0.382326,0.0765 -0.760998,0.17425 -1.146974,0.22939 -0.02668,0.004 -0.807421,-0.11924 -0.458788,0.2294 0.05407,0.0541 0.155872,0.021 0.229394,0 0.464997,-0.13286 0.895718,-0.5122 1.376368,-0.45879 0.961294,0.10681 1.835155,0.61172 2.752733,0.91758 1.583285,0.52776 2.935163,0.8927 4.58789,1.14697 0.458791,0.0765 0.917581,0.15293 1.376368,0.22939 0.45879,0 0.921605,-0.0606 1.376368,0 1.58646,0.21153 3.008556,0.98904 4.587891,1.14698 1.435658,0.14356 2.927376,-0.17889 4.358497,0 0.461526,0.0577 0.913159,0.18728 1.376368,0.22939 1.876681,0.17061 3.845319,0 5.734862,0 1.271765,0 2.633181,0.14073 3.899707,0 0.387511,-0.0431 0.760089,-0.18103 1.146974,-0.22939 0.978749,-0.12235 2.00338,0.12234 2.982129,0 0.239935,-0.03 0.44881,-0.1952 0.688184,-0.2294 0.302784,-0.0433 0.614791,0.0433 0.917578,0 0.478745,-0.0684 0.902152,-0.36394 1.376367,-0.45879 0.530188,-0.10603 1.073796,-0.13267 1.605762,-0.22939 0.310187,-0.0564 0.605475,-0.18481 0.917578,-0.2294 0.227089,-0.0324 0.461909,0.0377 0.688183,0 0.860304,-0.14338 1.668114,-0.72753 2.52334,-0.91758 1.304567,0 0.151024,0.10259 1.146974,-0.22939 0.448463,-0.14949 1.484963,0.05 1.835155,0 0.169264,-0.0242 0.292915,-0.18792 0.45879,-0.22939 0.222546,-0.0556 0.525978,0.1622 0.688184,0 0.120901,-0.1209 0.08713,-0.36395 0.229394,-0.45879 0.127246,-0.0848 0.308829,0.03 0.45879,0 0.237106,-0.0474 0.451075,-0.18198 0.688184,-0.2294 0.14996,-0.03 0.313706,0.0484 0.458787,0 0.10259,-0.0342 0.132675,-0.18103 0.229397,-0.22939 0.393655,-0.19683 1.965084,0.11977 2.293945,0.22939"
         id="path7" />
      <path
         style="fill:none;stroke:#000000;stroke-width:0.264583px;stroke-linecap:butt;stroke-linejoin:miter;stroke-opacity:1"
         d="m 100.9336,109.87999 c -0.0901,1.71338 0.14434,3.41515 0.68819,5.04668 0.0541,0.16221 0.15293,0.30586 0.22939,0.45879 0.15293,0.38232 0.32857,0.75633 0.45879,1.14697 0.12329,0.36989 0.12228,0.77208 0.22939,1.14698 0.45572,1.595 -0.0459,-0.35174 0.68819,1.60576 0.1107,0.29519 0.14278,0.61443 0.22939,0.91757 0.34636,1.21224 0.72503,2.41877 0.91758,3.67032 0.0937,0.60931 0.11912,1.22862 0.2294,1.83515 0.15971,0.87842 0.60824,1.33474 0.68818,2.29395 0.0698,0.83821 0,1.68223 0,2.52334 0,1.91162 0,3.82324 0,5.73486 0,1.68223 0,3.36446 0,5.04668 0,0.63801 0.15384,1.4492 0,2.06455 -0.0415,0.16588 -0.18793,0.29292 -0.2294,0.45879 -0.11127,0.44509 0.0754,0.92382 0,1.37637 -0.0281,0.16866 -0.18792,0.29291 -0.22939,0.45879 -0.0371,0.14836 0,0.30586 0,0.45879 -0.0765,0.15293 -0.17533,0.29658 -0.22939,0.45879 -0.18352,0.55055 0.18351,1.28461 0,1.83516 -0.0342,0.10258 -0.1952,0.1268 -0.2294,0.22939 -0.0484,0.14508 0.0251,0.30794 0,0.45879 -0.0518,0.31098 -0.17756,0.60659 -0.22939,0.91758 -0.0531,0.31844 0.1019,0.84125 0,1.14697 -0.0342,0.10259 -0.18104,0.13267 -0.2294,0.22939 -0.12154,0.24309 0.0866,0.65766 0,0.91758 -0.19901,0.59705 -0.22939,0.51447 -0.22939,1.14697"
         id="path8" />
      <path
         style="fill:none;stroke:#000000;stroke-width:0.264583px;stroke-linecap:butt;stroke-linejoin:miter;stroke-opacity:1"
         d="m 45.190727,159.42921 c 3.21787,-0.009 6.424496,-0.0678 9.634572,0.2294 2.833563,0.26237 5.652428,0.67317 8.487597,0.91758 3.064055,0.26414 6.109235,0.22939 9.175782,0.22939 1.299903,0 2.599804,0 3.899707,0 0.764648,0 1.532438,0.0692 2.293945,0 2.246831,-0.20426 1.279348,-0.53114 4.358497,-1.14697 0.902878,-0.18058 1.835756,-0.14604 2.752736,-0.2294 1.755034,-0.15955 2.159318,-0.22939 3.670311,-0.22939 0.372226,0 1.025784,0.11686 1.376367,0 0.10259,-0.0342 0.132676,-0.18103 0.229397,-0.22939 0.414255,-0.20713 3.094408,0.11504 3.899707,0 1.693756,-0.24197 0.871471,-0.2294 1.605761,-0.2294 0.382323,0 0.767601,0.0474 1.146972,0 0.344278,-0.043 0.91758,-0.5408 0.91758,0"
         id="path9" />
    </g>
    <g
       id="g91"
       inkscape:label="Frame 2"
       style="display:none"
       sodipodi:insensitive="true">
      <path
         style="fill:none;stroke:#000000;stroke-width:1.32292;stroke-linecap:butt;stroke-linejoin:miter;stroke-dasharray:none;stroke-opacity:1"
         d="M 41.749807,32.115238 V 49.663921"
         id="path22" />
      <path
         style="fill:none;stroke:#000000;stroke-width:0.79375;stroke-linecap:butt;stroke-linejoin:miter;stroke-dasharray:none;stroke-opacity:1"
         d="M 46.391045,23.195524 V 57.13722"
         id="path23"
         sodipodi:nodetypes="cc" />
      <path
         style="fill:none;stroke:#000000;stroke-width:1.32292;stroke-linecap:butt;stroke-linejoin:miter;stroke-dasharray:none;stroke-opacity:1"
         d="m 41.749807,32.115238 h 9.175782 V 27.89951"
         id="path24" />
      <path
         style="fill:none;stroke:#000000;stroke-width:1.32292;stroke-linecap:butt;stroke-linejoin:miter;stroke-dasharray:none;stroke-opacity:1"
         d="M 55.57526,18.451819 H 73.123943"
         id="path25" />
      <path
         style="fill:none;stroke:#000000;stroke-width:0.79375;stroke-linecap:butt;stroke-linejoin:miter;stroke-dasharray:none;stroke-opacity:1"
         d="m 46.391045,23.195524 34.206197,-0.0124"
         id="path26"
         sodipodi:nodetypes="cc" />
      <path
         style="fill:none;stroke:#000000;stroke-width:1.32292;stroke-linecap:butt;stroke-linejoin:miter;stroke-dasharray:none;stroke-opacity:1"
         d="M 55.57526,18.451819 V 27.80566 H 51.359532"
         id="path27" />
      <path
         style="fill:none;stroke:#000000;stroke-width:1.32292;stroke-dasharray:none;stroke-opacity:1"
         id="path28"
         sodipodi:type="arc"
         sodipodi:cx="23.195524"
         sodipodi:cy="-46.391045"
         sodipodi:rx="4.7039866"
         sodipodi:ry="4.7039866"
         sodipodi:start="1.5707963"
         sodipodi:end="3.1415927"
         sodipodi:arc-type="arc"
         d="m 23.195524,-41.687058 a 4.7039866,4.7039866 0 0 1 -3.326221,-1.377766 4.7039866,4.7039866 0 0 1 -1.377765,-3.326221"
         transform="rotate(90)"
         sodipodi:open="true" />
      <path
         style="fill:none;stroke:#000000;stroke-width:1.32292;stroke-linecap:butt;stroke-linejoin:miter;stroke-dasharray:none;stroke-opacity:1"
         d="m 46.390996,18.451819 h 4.50592 l 0.02867,9.447691 h -9.175782 l -0.06275,-4.703986"
         id="path29" />
      <path
         style="fill:none;stroke:#000000;stroke-width:1.32292;stroke-linecap:butt;stroke-linejoin:miter;stroke-dasharray:none;stroke-opacity:1"
         d="M 87.656574,18.408365 H 70.107891"
         id="path30" />
      <path
         style="fill:none;stroke:#000000;stroke-width:0.79375;stroke-linecap:butt;stroke-linejoin:miter;stroke-dasharray:none;stroke-opacity:1"
         d="M 96.576284,23.049603 H 62.634592"
         id="path31"
         sodipodi:nodetypes="cc" />
      <path
         style="fill:none;stroke:#000000;stroke-width:1.32292;stroke-linecap:butt;stroke-linejoin:miter;stroke-dasharray:none;stroke-opacity:1"
         d="m 87.656574,18.408365 v 9.175782 h 4.215728"
         id="path32" />
      <path
         style="fill:none;stroke:#000000;stroke-width:1.32292;stroke-linecap:butt;stroke-linejoin:miter;stroke-dasharray:none;stroke-opacity:1"
         d="m 101.31999,32.233818 v 17.54868"
         id="path33" />
      <path
         style="fill:none;stroke:#000000;stroke-width:0.79375;stroke-linecap:butt;stroke-linejoin:miter;stroke-dasharray:none;stroke-opacity:1"
         d="m 96.576284,23.049603 0.0124,34.206195"
         id="path34"
         sodipodi:nodetypes="cc" />
      <path
         style="fill:none;stroke:#000000;stroke-width:1.32292;stroke-linecap:butt;stroke-linejoin:miter;stroke-dasharray:none;stroke-opacity:1"
         d="M 101.31999,32.233818 H 91.966152 V 28.01809"
         id="path35" />
      <path
         style="fill:none;stroke:#000000;stroke-width:1.32292;stroke-dasharray:none;stroke-opacity:1"
         id="path36"
         sodipodi:type="arc"
         sodipodi:cx="-96.576286"
         sodipodi:cy="-23.049603"
         sodipodi:rx="4.7039866"
         sodipodi:ry="4.7039866"
         sodipodi:start="1.5707963"
         sodipodi:end="3.1415927"
         sodipodi:arc-type="arc"
         d="m -96.576286,-18.345616 a 4.7039866,4.7039866 0 0 1 -3.326221,-1.377766 4.7039866,4.7039866 0 0 1 -1.377763,-3.326221"
         transform="scale(-1)"
         sodipodi:open="true" />
      <path
         style="fill:none;stroke:#000000;stroke-width:1.32292;stroke-linecap:butt;stroke-linejoin:miter;stroke-dasharray:none;stroke-opacity:1"
         d="m 101.31999,23.049554 v 4.50592 l -9.447688,0.02867 v -9.175782 l 4.703982,-0.06275"
         id="path37" />
      <path
         style="fill:none;stroke:#000000;stroke-width:1.32292;stroke-linecap:butt;stroke-linejoin:miter;stroke-dasharray:none;stroke-opacity:1"
         d="M 101.37629,61.493622 V 43.944939"
         id="path38" />
      <path
         style="fill:none;stroke:#000000;stroke-width:0.79375;stroke-linecap:butt;stroke-linejoin:miter;stroke-dasharray:none;stroke-opacity:1"
         d="M 96.735052,70.413336 V 36.47164"
         id="path39"
         sodipodi:nodetypes="cc" />
      <path
         style="fill:none;stroke:#000000;stroke-width:1.32292;stroke-linecap:butt;stroke-linejoin:miter;stroke-dasharray:none;stroke-opacity:1"
         d="M 101.37629,61.493622 H 92.200508 V 65.70935"
         id="path40" />
      <path
         style="fill:none;stroke:#000000;stroke-width:1.32292;stroke-linecap:butt;stroke-linejoin:miter;stroke-dasharray:none;stroke-opacity:1"
         d="M 87.550837,75.157041 H 70.002154"
         id="path41" />
      <path
         style="fill:none;stroke:#000000;stroke-width:0.79375;stroke-linecap:butt;stroke-linejoin:miter;stroke-dasharray:none;stroke-opacity:1"
         d="m 96.735052,70.413336 -34.206197,0.0124"
         id="path42"
         sodipodi:nodetypes="cc" />
      <path
         style="fill:none;stroke:#000000;stroke-width:1.32292;stroke-linecap:butt;stroke-linejoin:miter;stroke-dasharray:none;stroke-opacity:1"
         d="M 87.550837,75.157041 V 65.8032 h 4.215728"
         id="path43" />
      <path
         style="fill:none;stroke:#000000;stroke-width:1.32292;stroke-dasharray:none;stroke-opacity:1"
         id="path44"
         sodipodi:type="arc"
         sodipodi:cx="-70.413338"
         sodipodi:cy="96.735054"
         sodipodi:rx="4.7039866"
         sodipodi:ry="4.7039866"
         sodipodi:start="1.5707963"
         sodipodi:end="3.1415927"
         sodipodi:arc-type="arc"
         d="m -70.413338,101.43904 a 4.7039866,4.7039866 0 0 1 -3.326221,-1.37777 4.7039866,4.7039866 0 0 1 -1.377765,-3.326216"
         transform="rotate(-90)"
         sodipodi:open="true" />
      <path
         style="fill:none;stroke:#000000;stroke-width:1.32292;stroke-linecap:butt;stroke-linejoin:miter;stroke-dasharray:none;stroke-opacity:1"
         d="m 96.735101,75.157041 h -4.50592 l -0.02867,-9.447691 h 9.175779 l 0.0628,4.703986"
         id="path45" />
      <path
         style="fill:none;stroke:#000000;stroke-width:1.32292;stroke-linecap:butt;stroke-linejoin:miter;stroke-dasharray:none;stroke-opacity:1"
         d="M 55.469523,75.200495 H 73.018206"
         id="path46" />
      <path
         style="fill:none;stroke:#000000;stroke-width:0.79375;stroke-linecap:butt;stroke-linejoin:miter;stroke-dasharray:none;stroke-opacity:1"
         d="M 46.549813,70.559257 H 80.491505"
         id="path47"
         sodipodi:nodetypes="cc" />
      <path
         style="fill:none;stroke:#000000;stroke-width:1.32292;stroke-linecap:butt;stroke-linejoin:miter;stroke-dasharray:none;stroke-opacity:1"
         d="M 55.469523,75.200495 V 66.024713 H 51.253795"
         id="path48" />
      <path
         style="fill:none;stroke:#000000;stroke-width:1.32292;stroke-linecap:butt;stroke-linejoin:miter;stroke-dasharray:none;stroke-opacity:1"
         d="M 41.806107,61.375042 V 43.826362"
         id="path49" />
      <path
         style="fill:none;stroke:#000000;stroke-width:0.79375;stroke-linecap:butt;stroke-linejoin:miter;stroke-dasharray:none;stroke-opacity:1"
         d="m 46.549813,70.559257 -0.0124,-34.206195"
         id="path50"
         sodipodi:nodetypes="cc" />
      <path
         style="fill:none;stroke:#000000;stroke-width:1.32292;stroke-linecap:butt;stroke-linejoin:miter;stroke-dasharray:none;stroke-opacity:1"
         d="m 41.806107,61.375042 h 9.353838 v 4.215728"
         id="path51" />
      <path
         style="fill:none;stroke:#000000;stroke-width:1.32292;stroke-dasharray:none;stroke-opacity:1"
         id="path52"
         sodipodi:type="arc"
         sodipodi:cx="46.549809"
         sodipodi:cy="70.559258"
         sodipodi:rx="4.7039866"
         sodipodi:ry="4.7039866"
         sodipodi:start="1.5707963"
         sodipodi:end="3.1415927"
         sodipodi:arc-type="arc"
         d="m 46.549809,75.263244 a 4.7039866,4.7039866 0 0 1 -3.326221,-1.377766 4.7039866,4.7039866 0 0 1 -1.377766,-3.32622"
         sodipodi:open="true" />
      <path
         style="fill:none;stroke:#000000;stroke-width:1.32292;stroke-linecap:butt;stroke-linejoin:miter;stroke-dasharray:none;stroke-opacity:1"
         d="m 41.806107,70.559306 v -4.50592 l 9.447688,-0.02867 v 9.175782 l -4.703982,0.06275"
         id="path53" />
    </g>
    <g
       id="g92"
       inkscape:label="Frame 3"
       style="display:none"
       sodipodi:insensitive="true">
      <path
         style="fill:none;stroke:#000000;stroke-width:1.32292;stroke-linecap:butt;stroke-linejoin:miter;stroke-dasharray:none;stroke-opacity:1"
         d="M 125.32486,32.115238 V 49.663921"
         id="path54" />
      <path
         style="fill:none;stroke:#000000;stroke-width:0.79375;stroke-linecap:butt;stroke-linejoin:miter;stroke-dasharray:none;stroke-opacity:1"
         d="M 129.96609,23.195524 V 57.13722"
         id="path55"
         sodipodi:nodetypes="cc" />
      <path
         style="fill:none;stroke:#000000;stroke-width:1.32292;stroke-linecap:butt;stroke-linejoin:miter;stroke-dasharray:none;stroke-opacity:1"
         d="m 139.15031,18.451819 h 17.54868"
         id="path57" />
      <path
         style="fill:none;stroke:#000000;stroke-width:0.79375;stroke-linecap:butt;stroke-linejoin:miter;stroke-dasharray:none;stroke-opacity:1"
         d="m 129.96609,23.195524 34.2062,-0.0124"
         id="path58"
         sodipodi:nodetypes="cc" />
      <path
         style="fill:none;stroke:#000000;stroke-width:1.32292;stroke-linecap:butt;stroke-linejoin:miter;stroke-dasharray:none;stroke-opacity:1"
         d="M 171.23162,18.408365 H 153.68294"
         id="path62" />
      <path
         style="fill:none;stroke:#000000;stroke-width:0.79375;stroke-linecap:butt;stroke-linejoin:miter;stroke-dasharray:none;stroke-opacity:1"
         d="M 180.15133,23.049603 H 146.20964"
         id="path63"
         sodipodi:nodetypes="cc" />
      <path
         style="fill:none;stroke:#000000;stroke-width:1.32292;stroke-linecap:butt;stroke-linejoin:miter;stroke-dasharray:none;stroke-opacity:1"
         d="m 171.23162,18.408365 v 9.175782 h 4.21573"
         id="path64" />
      <path
         style="fill:none;stroke:#000000;stroke-width:1.32292;stroke-linecap:butt;stroke-linejoin:miter;stroke-dasharray:none;stroke-opacity:1"
         d="m 184.89504,32.233818 v 17.54868"
         id="path65" />
      <path
         style="fill:none;stroke:#000000;stroke-width:0.79375;stroke-linecap:butt;stroke-linejoin:miter;stroke-dasharray:none;stroke-opacity:1"
         d="m 180.15133,23.049603 0.0124,34.206195"
         id="path66"
         sodipodi:nodetypes="cc" />
      <path
         style="fill:none;stroke:#000000;stroke-width:1.32292;stroke-linecap:butt;stroke-linejoin:miter;stroke-dasharray:none;stroke-opacity:1"
         d="M 184.89504,32.233818 H 175.5412 V 28.01809"
         id="path67" />
      <path
         style="fill:none;stroke:#000000;stroke-width:1.32292;stroke-dasharray:none;stroke-opacity:1"
         id="path68"
         sodipodi:type="arc"
         sodipodi:cx="-180.15134"
         sodipodi:cy="-23.049603"
         sodipodi:rx="4.7039866"
         sodipodi:ry="4.7039866"
         sodipodi:start="1.5707963"
         sodipodi:end="3.1415927"
         sodipodi:arc-type="arc"
         d="m -180.15134,-18.345616 a 4.7039866,4.7039866 0 0 1 -3.32622,-1.377766 4.7039866,4.7039866 0 0 1 -1.37776,-3.326221"
         transform="scale(-1)"
         sodipodi:open="true" />
      <path
         style="fill:none;stroke:#000000;stroke-width:1.32292;stroke-linecap:butt;stroke-linejoin:miter;stroke-dasharray:none;stroke-opacity:1"
         d="m 184.89504,23.049554 v 4.50592 l -9.44769,0.02867 v -9.175782 l 4.70398,-0.06275"
         id="path69" />
      <path
         style="fill:none;stroke:#000000;stroke-width:1.32292;stroke-linecap:butt;stroke-linejoin:miter;stroke-dasharray:none;stroke-opacity:1"
         d="M 184.95134,61.493622 V 43.944939"
         id="path70" />
      <path
         style="fill:none;stroke:#000000;stroke-width:0.79375;stroke-linecap:butt;stroke-linejoin:miter;stroke-dasharray:none;stroke-opacity:1"
         d="M 180.3101,70.413336 V 36.47164"
         id="path71"
         sodipodi:nodetypes="cc" />
      <path
         style="fill:none;stroke:#000000;stroke-width:1.32292;stroke-linecap:butt;stroke-linejoin:miter;stroke-dasharray:none;stroke-opacity:1"
         d="m 184.95134,61.493622 h -9.17578 v 4.215728"
         id="path72" />
      <path
         style="fill:none;stroke:#000000;stroke-width:1.32292;stroke-linecap:butt;stroke-linejoin:miter;stroke-dasharray:none;stroke-opacity:1"
         d="M 171.12589,75.157041 H 153.5772"
         id="path73" />
      <path
         style="fill:none;stroke:#000000;stroke-width:0.79375;stroke-linecap:butt;stroke-linejoin:miter;stroke-dasharray:none;stroke-opacity:1"
         d="m 180.3101,70.413336 -34.2062,0.0124"
         id="path74"
         sodipodi:nodetypes="cc" />
      <path
         style="fill:none;stroke:#000000;stroke-width:1.32292;stroke-linecap:butt;stroke-linejoin:miter;stroke-dasharray:none;stroke-opacity:1"
         d="M 171.12589,75.157041 V 65.8032 h 4.21572"
         id="path75" />
      <path
         style="fill:none;stroke:#000000;stroke-width:1.32292;stroke-dasharray:none;stroke-opacity:1"
         id="path76"
         sodipodi:type="arc"
         sodipodi:cx="-70.413338"
         sodipodi:cy="180.3101"
         sodipodi:rx="4.7039866"
         sodipodi:ry="4.7039866"
         sodipodi:start="1.5707963"
         sodipodi:end="3.1415927"
         sodipodi:arc-type="arc"
         d="m -70.413338,185.01409 a 4.7039866,4.7039866 0 0 1 -3.326221,-1.37776 4.7039866,4.7039866 0 0 1 -1.377765,-3.32623"
         transform="rotate(-90)"
         sodipodi:open="true" />
      <path
         style="fill:none;stroke:#000000;stroke-width:1.32292;stroke-linecap:butt;stroke-linejoin:miter;stroke-dasharray:none;stroke-opacity:1"
         d="m 180.31015,75.157041 h -4.50592 l -0.0287,-9.447691 h 9.17578 l 0.0628,4.703986"
         id="path77" />
      <path
         style="fill:none;stroke:#000000;stroke-width:1.32292;stroke-linecap:butt;stroke-linejoin:miter;stroke-dasharray:none;stroke-opacity:1"
         d="m 139.04457,75.200495 h 17.54869"
         id="path78" />
      <path
         style="fill:none;stroke:#000000;stroke-width:0.79375;stroke-linecap:butt;stroke-linejoin:miter;stroke-dasharray:none;stroke-opacity:1"
         d="m 130.12486,70.559257 h 33.94169"
         id="path79"
         sodipodi:nodetypes="cc" />
      <path
         style="fill:none;stroke:#000000;stroke-width:1.32292;stroke-linecap:butt;stroke-linejoin:miter;stroke-dasharray:none;stroke-opacity:1"
         d="m 139.04457,75.200495 v -9.175782 h -4.21573"
         id="path80" />
      <path
         style="fill:none;stroke:#000000;stroke-width:1.32292;stroke-linecap:butt;stroke-linejoin:miter;stroke-dasharray:none;stroke-opacity:1"
         d="M 125.38116,61.375042 V 43.826362"
         id="path81" />
      <path
         style="fill:none;stroke:#000000;stroke-width:0.79375;stroke-linecap:butt;stroke-linejoin:miter;stroke-dasharray:none;stroke-opacity:1"
         d="m 130.12486,70.559257 -0.0124,-34.206195"
         id="path82"
         sodipodi:nodetypes="cc" />
      <path
         style="fill:none;stroke:#000000;stroke-width:1.32292;stroke-linecap:butt;stroke-linejoin:miter;stroke-dasharray:none;stroke-opacity:1"
         d="m 125.38116,61.375042 h 9.35383 v 4.215728"
         id="path83" />
      <path
         style="fill:none;stroke:#000000;stroke-width:1.32292;stroke-dasharray:none;stroke-opacity:1"
         id="path84"
         sodipodi:type="arc"
         sodipodi:cx="130.12486"
         sodipodi:cy="70.559258"
         sodipodi:rx="4.7039866"
         sodipodi:ry="4.7039866"
         sodipodi:start="1.5707963"
         sodipodi:end="3.1415927"
         sodipodi:arc-type="arc"
         d="m 130.12486,75.263244 a 4.7039866,4.7039866 0 0 1 -3.32622,-1.377766 4.7039866,4.7039866 0 0 1 -1.37776,-3.32622"
         sodipodi:open="true" />
      <path
         style="fill:none;stroke:#000000;stroke-width:1.32292;stroke-linecap:butt;stroke-linejoin:miter;stroke-dasharray:none;stroke-opacity:1"
         d="m 125.38116,70.559306 v -4.50592 l 9.44768,-0.02867 v 9.175782 l -4.70398,0.06275"
         id="path85" />
      <path
         style="fill:none;stroke:#000000;stroke-width:1.32292;stroke-linecap:butt;stroke-linejoin:miter;stroke-dasharray:none;stroke-opacity:1"
         d="m 125.32486,32.115238 h 4.64123"
         id="path56" />
      <path
         style="fill:none;stroke:#000000;stroke-width:1.32292;stroke-linecap:butt;stroke-linejoin:miter;stroke-dasharray:none;stroke-opacity:1"
         d="m 139.15031,18.451819 0.002,4.740375"
         id="path59" />
      <path
         style="fill:none;stroke:#000000;stroke-width:1.32292;stroke-dasharray:none"
         id="path60"
         sodipodi:type="arc"
         sodipodi:cx="-23.592476"
         sodipodi:cy="130.04593"
         sodipodi:rx="8.5227613"
         sodipodi:ry="8.919713"
         sodipodi:start="1.5707963"
         sodipodi:end="3.1415927"
         sodipodi:open="true"
         sodipodi:arc-type="arc"
         d="m -23.592476,138.96564 a 8.5227613,8.919713 0 0 1 -6.026502,-2.61252 8.5227613,8.919713 0 0 1 -2.496259,-6.30719"
         transform="rotate(-90)" />
    </g>
    <g
       id="g89"
       inkscape:label="Frame 1"
       style="display:none"
       sodipodi:insensitive="true">
      <path
         style="fill:none;fill-opacity:1;stroke:#000000;stroke-width:0.79375;stroke-dasharray:none;stroke-opacity:1"
         id="path98"
         sodipodi:type="arc"
         sodipodi:cx="-103.94241"
         sodipodi:cy="129.29051"
         sodipodi:rx="9.5198736"
         sodipodi:ry="9.5198736"
         sodipodi:start="1.5707963"
         sodipodi:end="3.1415927"
         sodipodi:open="true"
         sodipodi:arc-type="arc"
         d="m -103.94241,138.81039 a 9.5198736,9.5198736 0 0 1 -6.73157,-2.78831 9.5198736,9.5198736 0 0 1 -2.78831,-6.73157"
         transform="rotate(-90)" />
      <path
         style="fill:none;stroke:#000000;stroke-width:0.529167;stroke-linecap:butt;stroke-linejoin:miter;stroke-dasharray:none;stroke-opacity:1"
         d="M 130.76925,125.32885 V 105.70187 H 148.5714"
         id="path99" />
      <path
         style="fill:none;stroke:#000000;stroke-width:0.79375;stroke-linecap:butt;stroke-linejoin:miter;stroke-dasharray:none;stroke-opacity:1"
         d="M 138.81038,103.94241 H 151.0142"
         id="path100" />
      <path
         style="fill:none;stroke:#000000;stroke-width:0.79375;stroke-linecap:butt;stroke-linejoin:miter;stroke-dasharray:none;stroke-opacity:1"
         d="M 129.29051,113.46229 V 126.5413"
         id="path101" />
      <path
         style="fill:none;fill-opacity:1;stroke:#000000;stroke-width:0.79375;stroke-dasharray:none;stroke-opacity:1"
         id="path102"
         sodipodi:type="arc"
         sodipodi:cx="-103.94241"
         sodipodi:cy="129.29051"
         sodipodi:rx="11.90625"
         sodipodi:ry="11.90625"
         sodipodi:start="1.5707963"
         sodipodi:end="3.1415927"
         sodipodi:open="true"
         sodipodi:arc-type="arc"
         d="m -103.94241,141.19676 a 11.90625,11.90625 0 0 1 -8.41899,-3.48726 11.90625,11.90625 0 0 1 -3.48726,-8.41899"
         transform="rotate(-90)" />
      <path
         style="fill:none;fill-opacity:1;stroke:#000000;stroke-width:0.79375;stroke-dasharray:none;stroke-opacity:1"
         id="path103"
         sodipodi:type="arc"
         sodipodi:cx="169.89941"
         sodipodi:cy="104.22314"
         sodipodi:rx="9.5198736"
         sodipodi:ry="9.5198736"
         sodipodi:start="1.5707963"
         sodipodi:end="3.1415927"
         sodipodi:open="true"
         sodipodi:arc-type="arc"
         d="m 169.89941,113.74301 a 9.5198736,9.5198736 0 0 1 -6.73156,-2.78831 9.5198736,9.5198736 0 0 1 -2.78831,-6.73156" />
      <path
         style="fill:none;stroke:#000000;stroke-width:0.529167;stroke-linecap:butt;stroke-linejoin:miter;stroke-dasharray:none;stroke-opacity:1"
         d="m 148.51298,105.70187 h 19.62698 v 17.80215"
         id="path104" />
      <path
         style="fill:none;stroke:#000000;stroke-width:0.79375;stroke-linecap:butt;stroke-linejoin:miter;stroke-dasharray:none;stroke-opacity:1"
         d="m 169.89942,113.743 v 12.20382"
         id="path105" />
      <path
         style="fill:none;stroke:#000000;stroke-width:0.79375;stroke-linecap:butt;stroke-linejoin:miter;stroke-dasharray:none;stroke-opacity:1"
         d="M 160.37954,104.22313 H 147.30053"
         id="path106" />
      <path
         style="fill:none;fill-opacity:1;stroke:#000000;stroke-width:0.79375;stroke-dasharray:none;stroke-opacity:1"
         id="path107"
         sodipodi:type="arc"
         sodipodi:cx="169.89941"
         sodipodi:cy="104.22314"
         sodipodi:rx="11.90625"
         sodipodi:ry="11.90625"
         sodipodi:start="1.5707963"
         sodipodi:end="3.1415927"
         sodipodi:open="true"
         sodipodi:arc-type="arc"
         d="m 169.89941,116.12939 a 11.90625,11.90625 0 0 1 -8.41899,-3.48726 11.90625,11.90625 0 0 1 -3.48726,-8.41899" />
      <path
         style="fill:none;fill-opacity:1;stroke:#000000;stroke-width:0.79375;stroke-dasharray:none;stroke-opacity:1"
         id="path108"
         sodipodi:type="arc"
         sodipodi:cx="142.88742"
         sodipodi:cy="-169.6561"
         sodipodi:rx="9.5198736"
         sodipodi:ry="9.5198736"
         sodipodi:start="1.5707963"
         sodipodi:end="3.1415927"
         sodipodi:open="true"
         sodipodi:arc-type="arc"
         d="m 142.88742,-160.13622 a 9.5198736,9.5198736 0 0 1 -6.73157,-2.78831 9.5198736,9.5198736 0 0 1 -2.7883,-6.73157"
         transform="rotate(90)" />
      <path
         style="fill:none;stroke:#000000;stroke-width:0.529167;stroke-linecap:butt;stroke-linejoin:miter;stroke-dasharray:none;stroke-opacity:1"
         d="m 168.17736,121.501 v 19.62698 h -17.80215"
         id="path109" />
      <path
         style="fill:none;stroke:#000000;stroke-width:0.79375;stroke-linecap:butt;stroke-linejoin:miter;stroke-dasharray:none;stroke-opacity:1"
         d="M 160.13623,142.88744 H 147.93241"
         id="path110" />
      <path
         style="fill:none;stroke:#000000;stroke-width:0.79375;stroke-linecap:butt;stroke-linejoin:miter;stroke-dasharray:none;stroke-opacity:1"
         d="M 169.6561,133.36756 V 120.28855"
         id="path111" />
      <path
         style="fill:none;fill-opacity:1;stroke:#000000;stroke-width:0.79375;stroke-dasharray:none;stroke-opacity:1"
         id="path112"
         sodipodi:type="arc"
         sodipodi:cx="142.88742"
         sodipodi:cy="-169.6561"
         sodipodi:rx="11.90625"
         sodipodi:ry="11.90625"
         sodipodi:start="1.5707963"
         sodipodi:end="3.1415927"
         sodipodi:open="true"
         sodipodi:arc-type="arc"
         d="m 142.88742,-157.74985 a 11.90625,11.90625 0 0 1 -8.41899,-3.48726 11.90625,11.90625 0 0 1 -3.48726,-8.41899"
         transform="rotate(90)" />
      <path
         style="fill:none;fill-opacity:1;stroke:#000000;stroke-width:0.79375;stroke-dasharray:none;stroke-opacity:1"
         id="path113"
         sodipodi:type="arc"
         sodipodi:cx="-129.0472"
         sodipodi:cy="-142.6067"
         sodipodi:rx="9.5198736"
         sodipodi:ry="9.5198736"
         sodipodi:start="1.5707963"
         sodipodi:end="3.1415927"
         sodipodi:open="true"
         sodipodi:arc-type="arc"
         d="m -129.0472,-133.08683 a 9.5198736,9.5198736 0 0 1 -6.73156,-2.78831 9.5198736,9.5198736 0 0 1 -2.78831,-6.73156"
         transform="scale(-1)" />
      <path
         style="fill:none;stroke:#000000;stroke-width:0.529167;stroke-linecap:butt;stroke-linejoin:miter;stroke-dasharray:none;stroke-opacity:1"
         d="M 150.43363,141.12798 H 130.80665 V 123.32583"
         id="path114" />
      <path
         style="fill:none;stroke:#000000;stroke-width:0.79375;stroke-linecap:butt;stroke-linejoin:miter;stroke-dasharray:none;stroke-opacity:1"
         d="M 129.04719,133.08685 V 120.88303"
         id="path115" />
      <path
         style="fill:none;stroke:#000000;stroke-width:0.79375;stroke-linecap:butt;stroke-linejoin:miter;stroke-dasharray:none;stroke-opacity:1"
         d="m 138.56707,142.60672 h 13.07901"
         id="path116" />
      <path
         style="fill:none;fill-opacity:1;stroke:#000000;stroke-width:0.79375;stroke-dasharray:none;stroke-opacity:1"
         id="path117"
         sodipodi:type="arc"
         sodipodi:cx="-129.0472"
         sodipodi:cy="-142.6067"
         sodipodi:rx="11.90625"
         sodipodi:ry="11.90625"
         sodipodi:start="1.5707963"
         sodipodi:end="3.1415927"
         sodipodi:open="true"
         sodipodi:arc-type="arc"
         d="m -129.0472,-130.70045 a 11.90625,11.90625 0 0 1 -8.41899,-3.48726 11.90625,11.90625 0 0 1 -3.48726,-8.41899"
         transform="scale(-1)" />
    </g>
  </g>
  <g
     inkscape:label="Layer 1"
     inkscape:groupmode="layer"
     id="layer1"
     transform="translate(-95.262305,-190.02804)">
    <g
       id="g123"
       transform="translate(-93.544335,-85.499521)"
       style="display:none">
      <path
         style="display:none;fill:none;fill-opacity:1;stroke:#000000;stroke-width:0.79375;stroke-dasharray:none;stroke-opacity:1"
         id="path131"
         sodipodi:type="arc"
         sodipodi:cx="183.33176"
         sodipodi:cy="224.81268"
         sodipodi:rx="13.229167"
         sodipodi:ry="13.229167"
         sodipodi:start="1.5707963"
         sodipodi:end="3.1415927"
         sodipodi:arc-type="slice"
         d="m 183.33176,238.04185 a 13.229167,13.229167 0 0 1 -9.35444,-3.87473 13.229167,13.229167 0 0 1 -3.87473,-9.35444 h 13.22917 z" />
      <path
         style="display:none;fill:none;fill-opacity:1;stroke:#000000;stroke-width:0.79375;stroke-dasharray:none;stroke-opacity:1"
         id="path132"
         sodipodi:type="arc"
         sodipodi:cx="-224.81268"
         sodipodi:cy="136.94072"
         sodipodi:rx="13.229167"
         sodipodi:ry="13.229167"
         sodipodi:start="1.5707963"
         sodipodi:end="3.1415927"
         sodipodi:arc-type="slice"
         d="m -224.81268,150.16989 a 13.229167,13.229167 0 0 1 -9.35444,-3.87474 13.229167,13.229167 0 0 1 -3.87473,-9.35443 h 13.22917 z"
         transform="rotate(-90)" />
      <path
         style="display:none;fill:none;fill-opacity:1;stroke:#000000;stroke-width:0.79375;stroke-dasharray:none;stroke-opacity:1"
         id="path133"
         sodipodi:type="arc"
         sodipodi:cx="-136.94072"
         sodipodi:cy="-271.20374"
         sodipodi:rx="13.229167"
         sodipodi:ry="13.229167"
         sodipodi:start="1.5707963"
         sodipodi:end="3.1415927"
         sodipodi:arc-type="slice"
         d="m -136.94072,-257.97457 a 13.229167,13.229167 0 0 1 -9.35443,-3.87473 13.229167,13.229167 0 0 1 -3.87474,-9.35444 h 13.22917 z"
         transform="scale(-1)" />
      <path
         style="display:none;fill:none;fill-opacity:1;stroke:#000000;stroke-width:0.79375;stroke-dasharray:none;stroke-opacity:1"
         id="path134"
         sodipodi:type="arc"
         sodipodi:cx="271.20374"
         sodipodi:cy="-183.33176"
         sodipodi:rx="13.229167"
         sodipodi:ry="13.229167"
         sodipodi:start="1.5707963"
         sodipodi:end="3.1415927"
         sodipodi:arc-type="slice"
         d="m 271.20374,-170.10259 a 13.229167,13.229167 0 0 1 -9.35444,-3.87473 13.229167,13.229167 0 0 1 -3.87473,-9.35444 h 13.22917 z"
         transform="rotate(90)" />
      <rect
         style="fill:none;fill-opacity:1;stroke:#000000;stroke-width:1.32292;stroke-dasharray:none;stroke-opacity:1"
         id="rect117"
         width="42.660294"
         height="42.660294"
         x="138.80609"
         y="226.67802" />
      <rect
         style="display:none;fill:none;fill-opacity:1;stroke:#000000;stroke-width:0.935208;stroke-dasharray:none;stroke-opacity:1"
         id="rect119"
         width="46.249584"
         height="46.249584"
         x="137.01144"
         y="224.88341" />
      <path
         style="fill:#ffffff;fill-opacity:1;stroke:none;stroke-width:1.2417;stroke-dasharray:none;stroke-opacity:1"
         id="path123"
         sodipodi:type="arc"
         sodipodi:cx="182.12784"
         sodipodi:cy="226.01656"
         sodipodi:rx="5.9550743"
         sodipodi:ry="5.9550743"
         sodipodi:start="1.5707963"
         sodipodi:end="3.1415927"
         sodipodi:arc-type="slice"
         d="m 182.12784,231.97163 a 5.9550743,5.9550743 0 0 1 -4.21088,-1.7442 5.9550743,5.9550743 0 0 1 -1.7442,-4.21087 h 5.95508 z" />
      <path
         style="fill:#ffffff;fill-opacity:1;stroke:none;stroke-width:1.2417;stroke-dasharray:none;stroke-opacity:1"
         id="path124"
         sodipodi:type="arc"
         sodipodi:cx="-226.01656"
         sodipodi:cy="138.14462"
         sodipodi:rx="5.9550743"
         sodipodi:ry="5.9550743"
         sodipodi:start="1.5707963"
         sodipodi:end="3.1415927"
         sodipodi:arc-type="slice"
         d="m -226.01656,144.0997 a 5.9550743,5.9550743 0 0 1 -4.21087,-1.7442 5.9550743,5.9550743 0 0 1 -1.7442,-4.21088 h 5.95507 z"
         transform="rotate(-90)" />
      <path
         style="fill:#ffffff;fill-opacity:1;stroke:none;stroke-width:1.2417;stroke-dasharray:none;stroke-opacity:1"
         id="path125"
         sodipodi:type="arc"
         sodipodi:cx="-138.14462"
         sodipodi:cy="-269.99976"
         sodipodi:rx="5.9550743"
         sodipodi:ry="5.9550743"
         sodipodi:start="1.5707963"
         sodipodi:end="3.1415927"
         sodipodi:arc-type="slice"
         d="m -138.14462,-264.04468 a 5.9550743,5.9550743 0 0 1 -4.21088,-1.7442 5.9550743,5.9550743 0 0 1 -1.7442,-4.21088 h 5.95508 z"
         transform="scale(-1)" />
      <path
         style="fill:#ffffff;fill-opacity:1;stroke:none;stroke-width:1.2417;stroke-dasharray:none;stroke-opacity:1"
         id="path126"
         sodipodi:type="arc"
         sodipodi:cx="269.99976"
         sodipodi:cy="-182.12784"
         sodipodi:rx="5.9550743"
         sodipodi:ry="5.9550743"
         sodipodi:start="1.5707963"
         sodipodi:end="3.1415927"
         sodipodi:arc-type="slice"
         d="m 269.99976,-176.17276 a 5.9550743,5.9550743 0 0 1 -4.21088,-1.7442 5.9550743,5.9550743 0 0 1 -1.7442,-4.21088 h 5.95508 z"
         transform="rotate(90)" />
      <rect
         style="fill:#ffffff;fill-opacity:1;stroke:#000000;stroke-width:0.79375;stroke-dasharray:none;stroke-opacity:1"
         id="rect118"
         width="39.25396"
         height="39.25396"
         x="140.50925"
         y="228.38121" />
      <path
         style="fill:none;fill-opacity:1;stroke:#000000;stroke-width:1.32292;stroke-dasharray:none;stroke-opacity:1"
         id="path120"
         sodipodi:type="arc"
         sodipodi:cx="-226.01656"
         sodipodi:cy="138.14462"
         sodipodi:rx="6.6145835"
         sodipodi:ry="6.6145835"
         sodipodi:start="1.5707963"
         sodipodi:end="3.1415927"
         sodipodi:open="true"
         sodipodi:arc-type="arc"
         d="m -226.01656,144.75921 a 6.6145835,6.6145835 0 0 1 -4.67721,-1.93737 6.6145835,6.6145835 0 0 1 -1.93737,-4.67722"
         transform="rotate(-90)" />
      <path
         style="fill:none;fill-opacity:1;stroke:#000000;stroke-width:1.32292;stroke-dasharray:none;stroke-opacity:1"
         id="path121"
         sodipodi:type="arc"
         sodipodi:cx="-138.14462"
         sodipodi:cy="-269.99976"
         sodipodi:rx="6.6145835"
         sodipodi:ry="6.6145835"
         sodipodi:start="1.5707963"
         sodipodi:end="3.1415927"
         sodipodi:open="true"
         sodipodi:arc-type="arc"
         d="m -138.14462,-263.38517 a 6.6145835,6.6145835 0 0 1 -4.67722,-1.93737 6.6145835,6.6145835 0 0 1 -1.93737,-4.67722"
         transform="scale(-1)" />
      <path
         style="fill:none;fill-opacity:1;stroke:#000000;stroke-width:1.32292;stroke-dasharray:none;stroke-opacity:1"
         id="path119"
         sodipodi:type="arc"
         sodipodi:cx="182.12784"
         sodipodi:cy="226.01656"
         sodipodi:rx="6.6145835"
         sodipodi:ry="6.6145835"
         sodipodi:start="1.5707963"
         sodipodi:end="3.1415927"
         sodipodi:open="true"
         sodipodi:arc-type="arc"
         d="m 182.12784,232.63114 a 6.6145835,6.6145835 0 0 1 -4.67722,-1.93737 6.6145835,6.6145835 0 0 1 -1.93737,-4.67721"
         inkscape:label="path119" />
      <path
         style="fill:none;fill-opacity:1;stroke:#000000;stroke-width:1.32292;stroke-dasharray:none;stroke-opacity:1"
         id="path122"
         sodipodi:type="arc"
         sodipodi:cx="269.99976"
         sodipodi:cy="-182.12784"
         sodipodi:rx="6.6145835"
         sodipodi:ry="6.6145835"
         sodipodi:start="1.5707963"
         sodipodi:end="3.1415927"
         sodipodi:open="true"
         sodipodi:arc-type="arc"
         d="m 269.99976,-175.51325 a 6.6145835,6.6145835 0 0 1 -4.67722,-1.93737 6.6145835,6.6145835 0 0 1 -1.93737,-4.67722"
         transform="rotate(90)" />
      <path
         style="display:none;fill:none;stroke:#000000;stroke-width:0.79375;stroke-linecap:butt;stroke-linejoin:miter;stroke-dasharray:none;stroke-opacity:1"
         d="m 179.76321,224.88341 v 3.4978 h 3.49782"
         id="path127" />
      <path
         style="display:none;fill:none;stroke:#000000;stroke-width:0.79375;stroke-linecap:butt;stroke-linejoin:miter;stroke-dasharray:none;stroke-opacity:1"
         d="m 137.01145,228.38121 h 3.4978 v -3.49782"
         id="path128" />
      <path
         style="display:none;fill:none;stroke:#000000;stroke-width:0.79375;stroke-linecap:butt;stroke-linejoin:miter;stroke-dasharray:none;stroke-opacity:1"
         d="m 183.21528,267.58941 h -3.4978 v 3.49782"
         id="path129" />
      <path
         style="display:none;fill:none;stroke:#000000;stroke-width:0.79375;stroke-linecap:butt;stroke-linejoin:miter;stroke-dasharray:none;stroke-opacity:1"
         d="m 140.555,271.08722 v -3.4978 h -3.49782"
         id="path130" />
      <path
         style="fill:none;stroke:#000000;stroke-width:0.79375;stroke-linecap:butt;stroke-linejoin:miter;stroke-dasharray:none;stroke-opacity:1"
         d="m 149.67007,226.67802 0.49981,-1.86534 h -13.22916 v 13.22917 l 1.86537,-0.49982"
         id="path61" />
      <path
         style="fill:none;stroke:#000000;stroke-width:0.79375;stroke-linecap:butt;stroke-linejoin:miter;stroke-dasharray:none;stroke-opacity:1"
         d="m 181.46642,237.54203 1.86534,0.49981 v -13.22916 h -13.22917 l 0.49982,1.86537"
         id="path86" />
      <path
         style="fill:none;stroke:#000000;stroke-width:0.79375;stroke-linecap:butt;stroke-linejoin:miter;stroke-dasharray:none;stroke-opacity:1"
         d="m 138.80606,258.47439 -1.86534,-0.49981 v 13.22916 h 13.22917 l -0.49982,-1.86537"
         id="path87" />
      <path
         style="fill:none;stroke:#000000;stroke-width:0.79375;stroke-linecap:butt;stroke-linejoin:miter;stroke-dasharray:none;stroke-opacity:1"
         d="m 170.60241,269.3384 -0.49981,1.86534 h 13.22916 v -13.22917 l -1.86537,0.49982"
         id="path88" />
    </g>
    <g
       id="g138"
       inkscape:export-filename="frame.png"
       inkscape:export-xdpi="100"
       inkscape:export-ydpi="100">
      <path
         style="display:none;fill:none;stroke:#000000;stroke-width:1.32292;stroke-linecap:butt;stroke-linejoin:miter;stroke-dasharray:none;stroke-opacity:1"
         d="m 97.511268,204.17129 v -11.8943 h 11.894282"
         id="path94"
         sodipodi:nodetypes="ccc" />
      <path
         style="display:none;fill:none;stroke:#ffffff;stroke-width:0.79375;stroke-linecap:butt;stroke-linejoin:miter;stroke-dasharray:none;stroke-opacity:1"
         d="m 96.45293,203.4414 v -12.22274 h 12.22273"
         id="path93"
         sodipodi:nodetypes="ccc" />
      <path
         style="display:none;fill:none;stroke:#000000;stroke-width:0.79375;stroke-linecap:butt;stroke-linejoin:miter;stroke-dasharray:none;stroke-opacity:1"
         d="m 108.38853,192.29025 0.49981,-1.86534 H 95.65918 v 13.22917 l 1.86537,-0.49982"
         id="path92" />
      <path
         style="display:none;fill:none;stroke:#ffffff;stroke-width:0.79375;stroke-linecap:butt;stroke-linejoin:miter;stroke-dasharray:none;stroke-opacity:1"
         d="M 98.569601,204.17129 V 193.33532 H 109.40555"
         id="path97"
         sodipodi:nodetypes="ccc" />
      <path
         style="display:none;fill:none;stroke:#000000;stroke-width:0.79375;stroke-linecap:butt;stroke-linejoin:miter;stroke-dasharray:none;stroke-opacity:1"
         d="M 99.363351,204.17129 V 194.12907 H 109.40555"
         id="path118"
         sodipodi:nodetypes="ccc" />
      <path
         style="display:none;fill:none;stroke:#000000;stroke-width:1.32292;stroke-dasharray:none;stroke-opacity:1"
         id="path135"
         sodipodi:type="arc"
         sodipodi:cx="-191.61552"
         sodipodi:cy="96.861504"
         sodipodi:rx="7.4083333"
         sodipodi:ry="7.4083333"
         sodipodi:start="1.5707963"
         sodipodi:end="3.1415927"
         sodipodi:arc-type="arc"
         d="m -191.61552,104.26984 a 7.4083333,7.4083333 0 0 1 -5.23849,-2.16985 7.4083333,7.4083333 0 0 1 -2.16985,-5.238486"
         transform="rotate(-90)"
         sodipodi:open="true" />
      <path
         style="display:none;fill:none;stroke:none;stroke-width:1.32292;stroke-dasharray:none;stroke-opacity:1"
         id="path136"
         sodipodi:type="arc"
         sodipodi:cx="-190.82178"
         sodipodi:cy="96.056053"
         sodipodi:rx="7.4887319"
         sodipodi:ry="7.5826449"
         sodipodi:start="1.5707963"
         sodipodi:end="3.1415927"
         sodipodi:arc-type="slice"
         d="m -190.82178,103.6387 a 7.4887319,7.5826449 0 0 1 -5.29533,-2.22091 7.4887319,7.5826449 0 0 1 -2.1934,-5.361737 h 7.48873 z"
         transform="rotate(-90)" />
      <rect
         style="display:none;fill:#000000;fill-opacity:1;stroke:none;stroke-width:1.32292;stroke-dasharray:none;stroke-opacity:1"
         id="rect139"
         width="19.049999"
         height="19.049999"
         x="96.849808"
         y="191.61552" />
      <rect
         style="display:none;fill:#ffffff;fill-opacity:1;stroke:none;stroke-width:1.32292;stroke-dasharray:none;stroke-opacity:1"
         id="rect138"
         width="16.404167"
         height="16.404167"
         x="98.172729"
         y="192.93845" />
      <rect
         style="display:none;fill:#000000;fill-opacity:1;stroke:none;stroke-width:1.32292;stroke-dasharray:none;stroke-opacity:1"
         id="rect136"
         width="14.816667"
         height="14.816667"
         x="98.966469"
         y="193.73219" />
      <rect
         style="display:none;fill:#ffffff;fill-opacity:1;stroke:none;stroke-width:1.32292;stroke-dasharray:none;stroke-opacity:1"
         id="rect137"
         width="13.229167"
         height="13.229167"
         x="99.760223"
         y="194.52594" />
      <path
         style="display:none;fill:#000000;fill-opacity:1;stroke:none;stroke-width:1.32292;stroke-dasharray:none;stroke-opacity:1"
         id="path140"
         sodipodi:type="arc"
         sodipodi:cx="-191.61552"
         sodipodi:cy="96.849808"
         sodipodi:rx="6.6145835"
         sodipodi:ry="6.6145835"
         sodipodi:start="1.5707963"
         sodipodi:end="3.1415927"
         sodipodi:arc-type="slice"
         d="m -191.61552,103.46439 a 6.6145835,6.6145835 0 0 1 -4.67722,-1.93737 6.6145835,6.6145835 0 0 1 -1.93737,-4.677212 h 6.61459 z"
         transform="rotate(-90)" />
      <path
         style="display:none;fill:#ffffff;fill-opacity:1;stroke:none;stroke-width:1.32292;stroke-dasharray:none;stroke-opacity:1"
         id="path139"
         sodipodi:type="arc"
         sodipodi:cx="-191.61552"
         sodipodi:cy="96.849808"
         sodipodi:rx="5.2916665"
         sodipodi:ry="5.2916665"
         sodipodi:start="1.5707963"
         sodipodi:end="3.1415927"
         sodipodi:arc-type="slice"
         d="m -191.61552,102.14147 a 5.2916665,5.2916665 0 0 1 -3.74178,-1.54989 5.2916665,5.2916665 0 0 1 -1.54989,-3.741772 h 5.29167 z"
         transform="rotate(-90)" />
      <path
         style="display:none;fill:none;stroke:#000000;stroke-width:0.79375;stroke-linecap:butt;stroke-linejoin:miter;stroke-dasharray:none;stroke-opacity:1"
         d="m 97.52452,219.33158 -1.86534,-0.49981 v 13.22916 h 13.22917 l -0.49982,-1.86537"
         id="path141" />
      <path
         style="display:none;fill:none;stroke:#000000;stroke-width:0.79375;stroke-linecap:butt;stroke-linejoin:miter;stroke-dasharray:none;stroke-opacity:1"
         d="m 135.42986,203.15426 1.86534,0.49981 v -13.22916 h -13.22917 l 0.49982,1.86537"
         id="path142" />
      <path
         style="display:none;fill:none;stroke:#000000;stroke-width:0.79375;stroke-linecap:butt;stroke-linejoin:miter;stroke-dasharray:none;stroke-opacity:1"
         d="m 124.56584,230.19559 -0.49981,1.86534 h 13.22916 v -13.22917 l -1.86537,0.49982"
         id="path143" />
      <path
         style="fill:#26252c;stroke:none;stroke-width:1.32292;stroke-linecap:butt;stroke-linejoin:miter;stroke-dasharray:none;stroke-opacity:1;fill-opacity:1"
         d="m 97.511263,192.27699 37.931847,10e-6 -1e-5,37.93185 -37.93184,-1e-5 z"
         id="path171"
         sodipodi:nodetypes="ccccc"
         transform="translate(-7.6487287e-7)" />
      <path
         style="display:inline;fill:#d2b069;fill-opacity:1;stroke:none;stroke-width:0.79375;stroke-dasharray:none;stroke-opacity:1"
         id="path149"
         sodipodi:type="arc"
         sodipodi:cx="-190.82178"
         sodipodi:cy="96.056053"
         sodipodi:rx="9.260417"
         sodipodi:ry="9.260417"
         sodipodi:start="1.5707963"
         sodipodi:end="3.1415927"
         sodipodi:arc-type="slice"
         d="m -190.82178,105.31647 a 9.260417,9.260417 0 0 1 -6.5481,-2.71231 9.260417,9.260417 0 0 1 -2.71231,-6.548107 h 9.26041 z"
         transform="rotate(-90)" />
      <path
         style="fill:none;stroke:#26252c;stroke-width:0.79375;stroke-linecap:butt;stroke-linejoin:miter;stroke-dasharray:none;stroke-opacity:1"
         d="m 96.45293,203.4414 v -12.22274 h 12.22273"
         id="path150"
         sodipodi:nodetypes="ccc" />
      <path
         style="display:inline;fill:none;stroke:#d2b069;stroke-width:0.79375;stroke-linecap:butt;stroke-linejoin:miter;stroke-dasharray:none;stroke-opacity:1"
         d="m 108.38853,192.29025 0.49981,-1.86534 H 95.65918 v 13.22917 l 1.86537,-0.49982"
         id="path144" />
      <path
         style="fill:none;stroke:#d2b069;stroke-width:1.32292;stroke-linecap:butt;stroke-linejoin:miter;stroke-dasharray:none;stroke-opacity:1"
         d="m 97.511263,192.27699 37.931847,10e-6 -1e-5,37.93185 -37.93184,-1e-5 z"
         id="path146"
         sodipodi:nodetypes="ccccc" />
      <path
         style="fill:#26252c;fill-opacity:1;stroke:none;stroke-width:0.79375;stroke-dasharray:none;stroke-opacity:1"
         id="path148"
         sodipodi:type="arc"
         sodipodi:cx="-190.82178"
         sodipodi:cy="96.056053"
         sodipodi:rx="7.9375"
         sodipodi:ry="7.9375"
         sodipodi:start="1.5707963"
         sodipodi:end="3.1415927"
         sodipodi:arc-type="slice"
         d="m -190.82178,103.99355 a 7.9375,7.9375 0 0 1 -5.61266,-2.32484 7.9375,7.9375 0 0 1 -2.32484,-5.612657 h 7.9375 z"
         transform="rotate(-90)" />
      <path
         style="display:none;fill:none;stroke:#d2b069;stroke-width:0.79375;stroke-linecap:butt;stroke-linejoin:miter;stroke-dasharray:none;stroke-opacity:1"
         d="m 135.42985,203.15426 1.86534,0.49981 v -13.22916 h -13.22917 l 0.49982,1.86537"
         id="path151" />
      <path
         style="fill:#d2b069;fill-opacity:1;stroke:none;stroke-width:0.79375;stroke-dasharray:none;stroke-opacity:1"
         id="path152"
         sodipodi:type="arc"
         sodipodi:cx="136.89832"
         sodipodi:cy="190.82178"
         sodipodi:rx="9.260417"
         sodipodi:ry="9.260417"
         sodipodi:start="1.5707963"
         sodipodi:end="3.1415927"
         sodipodi:arc-type="slice"
         d="m 136.89832,200.08219 a 9.260417,9.260417 0 0 1 -6.54811,-2.71231 9.260417,9.260417 0 0 1 -2.71231,-6.5481 h 9.26042 z" />
      <path
         style="fill:none;stroke:#26252c;stroke-width:0.79375;stroke-linecap:butt;stroke-linejoin:miter;stroke-dasharray:none;stroke-opacity:1"
         d="m 124.2787,191.21866 h 12.22274 v 12.22273"
         id="path153"
         sodipodi:nodetypes="ccc" />
      <path
         style="display:inline;fill:none;stroke:#d2b069;stroke-width:0.79375;stroke-linecap:butt;stroke-linejoin:miter;stroke-dasharray:none;stroke-opacity:1"
         d="m 135.42985,203.15426 1.86534,0.49981 v -13.22916 h -13.22917 l 0.49982,1.86537"
         id="path154" />
      <path
         style="fill:#26252c;fill-opacity:1;stroke:none;stroke-width:0.79375;stroke-dasharray:none;stroke-opacity:1"
         id="path156"
         sodipodi:type="arc"
         sodipodi:cx="136.89832"
         sodipodi:cy="190.82178"
         sodipodi:rx="7.9375"
         sodipodi:ry="7.9375"
         sodipodi:start="1.5707963"
         sodipodi:end="3.1415927"
         sodipodi:arc-type="slice"
         d="m 136.89832,198.75928 a 7.9375,7.9375 0 0 1 -5.61266,-2.32484 7.9375,7.9375 0 0 1 -2.32484,-5.61266 h 7.9375 z" />
      <path
         style="display:inline;fill:none;stroke:#d2b069;stroke-width:0.79375;stroke-linecap:butt;stroke-linejoin:miter;stroke-dasharray:none;stroke-opacity:1"
         d="m 124.56584,230.19559 -0.49981,1.86534 h 13.22916 v -13.22917 l -1.86537,0.49982"
         id="path158" />
      <path
         style="fill:#d2b069;fill-opacity:1;stroke:none;stroke-width:0.79375;stroke-dasharray:none;stroke-opacity:1"
         id="path159"
         sodipodi:type="arc"
         sodipodi:cx="231.66405"
         sodipodi:cy="-136.89833"
         sodipodi:rx="9.260417"
         sodipodi:ry="9.260417"
         sodipodi:start="1.5707963"
         sodipodi:end="3.1415927"
         sodipodi:arc-type="slice"
         d="m 231.66405,-127.63791 a 9.260417,9.260417 0 0 1 -6.54811,-2.71232 9.260417,9.260417 0 0 1 -2.71231,-6.5481 h 9.26042 z"
         transform="rotate(90)" />
      <path
         style="fill:none;stroke:#26252c;stroke-width:0.79375;stroke-linecap:butt;stroke-linejoin:miter;stroke-dasharray:none;stroke-opacity:1"
         d="m 136.50144,219.04444 v 12.22274 h -12.22273"
         id="path160"
         sodipodi:nodetypes="ccc" />
      <path
         style="display:inline;fill:none;stroke:#d2b069;stroke-width:0.79375;stroke-linecap:butt;stroke-linejoin:miter;stroke-dasharray:none;stroke-opacity:1"
         d="m 124.56584,230.19559 -0.49981,1.86534 h 13.22916 v -13.22917 l -1.86537,0.49982"
         id="path161" />
      <path
         style="fill:#26252c;fill-opacity:1;stroke:none;stroke-width:0.79375;stroke-dasharray:none;stroke-opacity:1"
         id="path163"
         sodipodi:type="arc"
         sodipodi:cx="231.66405"
         sodipodi:cy="-136.89833"
         sodipodi:rx="7.9375"
         sodipodi:ry="7.9375"
         sodipodi:start="1.5707963"
         sodipodi:end="3.1415927"
         sodipodi:arc-type="slice"
         d="m 231.66405,-128.96083 a 7.9375,7.9375 0 0 1 -5.61266,-2.32484 7.9375,7.9375 0 0 1 -2.32484,-5.61266 h 7.9375 z"
         transform="rotate(90)" />
      <path
         style="display:none;fill:none;stroke:#000000;stroke-width:0.79375;stroke-linecap:butt;stroke-linejoin:miter;stroke-dasharray:none;stroke-opacity:1"
         d="m 97.52452,219.33157 -1.86534,-0.49981 v 13.22917 h 13.22916 l -0.49982,-1.86537"
         id="path165" />
      <path
         style="fill:#d2b069;fill-opacity:1;stroke:none;stroke-width:0.79375;stroke-dasharray:none;stroke-opacity:1"
         id="path166"
         sodipodi:type="arc"
         sodipodi:cx="-96.056068"
         sodipodi:cy="-231.66406"
         sodipodi:rx="9.260417"
         sodipodi:ry="9.260417"
         sodipodi:start="1.5707963"
         sodipodi:end="3.1415927"
         sodipodi:arc-type="slice"
         d="m -96.056068,-222.40365 a 9.260417,9.260417 0 0 1 -6.548102,-2.71231 9.260417,9.260417 0 0 1 -2.71232,-6.5481 h 9.260422 z"
         transform="scale(-1)" />
      <path
         style="display:inline;fill:none;stroke:#26252c;stroke-width:0.79375;stroke-linecap:butt;stroke-linejoin:miter;stroke-dasharray:none;stroke-opacity:1"
         d="M 108.67566,231.26718 H 96.45293 v -12.22274"
         id="path167"
         sodipodi:nodetypes="ccc" />
      <path
         style="display:inline;fill:none;stroke:#d2b069;stroke-width:0.79375;stroke-linecap:butt;stroke-linejoin:miter;stroke-dasharray:none;stroke-opacity:1"
         d="m 97.52452,219.33157 -1.86534,-0.49981 v 13.22917 h 13.22916 l -0.49982,-1.86537"
         id="path168" />
      <path
         style="fill:#26252c;fill-opacity:1;stroke:none;stroke-width:0.79375;stroke-dasharray:none;stroke-opacity:1"
         id="path170"
         sodipodi:type="arc"
         sodipodi:cx="-96.056068"
         sodipodi:cy="-231.66406"
         sodipodi:rx="7.9375"
         sodipodi:ry="7.9375"
         sodipodi:start="1.5707963"
         sodipodi:end="3.1415927"
         sodipodi:arc-type="slice"
         d="m -96.056068,-223.72656 a 7.9375,7.9375 0 0 1 -5.612662,-2.32484 7.9375,7.9375 0 0 1 -2.32484,-5.61266 h 7.937502 z"
         transform="scale(-1)" />
      <path
         style="fill:none;stroke:#d2b069;stroke-width:0.79375;stroke-linecap:butt;stroke-linejoin:miter;stroke-dasharray:none;stroke-opacity:1"
         d="m 123.54881,194.12908 h 10.04222 l -1e-5,24.18547 0,10.04222 -10.0422,-1e-5 H 99.363332 l 7e-6,-10.04221 7e-6,-24.18548 h 24.185464"
         id="path157"
         sodipodi:nodetypes="ccccccccc"
         transform="translate(-7.6487287e-7)" />
    </g>
  </g>
</svg>
